<svg width="702" height="768" viewBox="0 0 702 768" fill="none" xmlns="http://www.w3.org/2000/svg">
<g filter="url(#filter0_b_17416_2)">
<path d="M611.577 501.874C607.484 578.086 542.385 636.55 466.173 632.458L142.135 615.058C83.5101 611.91 38.5374 561.834 41.6853 503.209V503.209C46.4072 415.272 121.522 347.813 209.459 352.535L491.037 367.655C561.387 371.432 615.354 431.524 611.577 501.874V501.874Z" fill="white" fill-opacity="0.08"/>
</g>
<g filter="url(#filter1_d_17416_2)">
<path fill-rule="evenodd" clip-rule="evenodd" d="M153.341 216.682C153.341 216.682 156.081 193.848 157.908 181.518C157.908 181.518 173.434 159.598 198.094 141.788L230.975 143.615C230.975 143.615 164.301 197.045 153.341 216.682Z" fill="url(#paint0_linear_17416_2)"/>
<path fill-rule="evenodd" clip-rule="evenodd" d="M198.096 141.788C198.096 141.788 198.096 160.055 181.199 174.668C164.303 189.282 156.996 184.258 156.996 184.258L152.886 213.485L230.519 143.615L198.096 141.788Z" fill="url(#paint1_linear_17416_2)"/>
<path fill-rule="evenodd" clip-rule="evenodd" d="M552.466 333.132C552.466 353.682 549.726 374.232 544.246 392.956C533.286 431.316 511.822 465.109 483.509 491.596C463.415 510.32 439.212 525.39 412.725 535.436C388.978 544.57 362.948 549.593 336.004 549.593C332.351 549.593 328.241 549.593 324.588 549.137C319.108 548.68 313.171 548.223 307.691 547.767C266.134 542.286 227.774 524.933 197.177 498.903C185.76 489.313 175.257 478.353 165.667 466.479C158.817 457.346 152.423 448.213 146.943 438.166C145.573 435.883 144.203 433.143 142.833 430.859C142.833 430.859 142.833 430.859 142.833 430.403C141.463 427.663 140.093 425.379 139.18 422.639C135.527 414.419 132.33 405.742 129.59 397.066C127.763 390.672 125.937 384.279 124.567 377.886C123.653 373.319 122.74 368.752 122.283 363.729C120.913 353.682 120 343.635 120 333.132C120 327.195 120 321.259 120.913 315.322C121.37 311.669 121.827 308.015 122.283 304.362C125.023 282.898 130.96 262.805 139.637 244.082C143.747 234.948 148.77 225.815 154.25 217.595C163.384 203.438 173.887 190.195 186.217 178.321C225.034 140.418 278.464 117.128 336.918 117.128C339.201 117.128 341.485 117.128 343.768 117.128C346.051 117.128 348.791 117.127 351.074 117.584C363.405 118.498 375.735 120.324 387.608 123.064C394.458 124.891 401.308 126.718 407.702 129.001C412.268 130.371 416.378 132.198 420.945 134.024C424.142 135.394 427.338 136.764 430.535 138.134C430.992 138.591 431.448 138.591 432.362 139.048C453.368 149.094 472.549 162.794 488.989 179.235C491.272 181.518 493.555 183.801 495.839 186.541C497.209 188.368 499.035 189.738 500.405 191.565C503.145 194.305 505.429 197.501 507.712 200.241C516.389 211.201 523.696 223.075 530.089 235.405C537.396 250.018 543.332 265.545 547.442 281.528C550.182 297.512 552.466 314.865 552.466 333.132Z" fill="url(#paint2_radial_17416_2)"/>
<path fill-rule="evenodd" clip-rule="evenodd" d="M430.992 138.592C430.078 138.592 429.622 138.592 428.708 139.049C426.425 139.505 424.142 139.049 421.858 138.592C420.032 138.135 419.118 137.222 416.835 137.222C414.095 136.765 411.812 135.852 409.072 135.395C406.332 134.939 404.048 134.025 401.308 133.112C399.025 132.198 398.112 132.655 396.285 133.112C394.458 133.569 393.088 132.655 391.261 132.198C389.435 131.285 387.151 131.285 385.325 130.828C379.845 129.915 374.365 128.088 368.885 126.718C365.688 125.805 362.491 125.805 358.838 125.805C356.098 125.805 353.815 126.718 351.074 126.718C349.248 126.718 347.878 126.262 346.051 126.262C344.225 125.805 342.398 126.262 340.571 126.262C337.831 125.805 336.461 125.348 333.721 126.262C331.438 126.718 330.068 126.718 327.784 127.175C325.501 127.175 322.761 128.088 320.478 128.545C316.368 129.458 311.801 130.372 307.691 130.372C304.951 130.372 301.298 129.458 299.014 130.372C297.644 130.828 296.731 132.655 295.361 133.568C293.078 135.852 290.794 137.679 288.968 139.962C287.141 142.245 285.314 144.985 285.314 148.182C285.314 150.922 286.684 154.119 288.054 156.402C289.424 159.142 289.881 161.425 287.141 163.252C283.944 165.535 279.834 167.362 276.181 168.732C273.441 169.645 271.157 170.102 269.331 168.275C268.417 167.819 267.961 166.449 267.047 165.535C266.134 165.079 264.764 165.535 263.851 165.992C261.111 166.905 258.371 167.819 255.631 168.275C253.804 168.732 252.434 169.645 250.607 169.645C248.781 170.102 247.411 168.732 245.127 169.189C242.387 169.645 239.191 171.015 236.451 171.015C234.167 171.015 231.427 170.102 229.601 169.189C228.687 168.732 228.231 167.819 226.861 168.275C225.947 168.275 224.577 169.645 224.121 170.559C223.207 171.472 223.207 172.842 222.294 173.755C221.381 175.125 220.924 176.039 220.011 177.409C218.641 179.692 217.271 181.975 215.901 184.259C214.987 185.629 214.074 187.912 212.704 189.282C212.247 190.195 210.877 190.652 209.964 191.109C207.68 192.479 205.397 194.305 203.114 195.675C199.004 198.872 194.894 202.526 190.784 205.722C187.587 208.006 183.02 209.376 179.367 211.202C177.084 212.116 174.8 213.029 172.517 213.942C171.604 214.399 170.234 214.399 169.777 215.312C168.864 216.226 168.407 217.139 167.95 218.509C166.124 220.792 163.84 223.532 162.47 226.272C161.557 228.099 161.1 229.469 160.187 231.296C159.273 233.579 157.903 235.862 157.447 238.602C155.62 243.626 155.62 249.106 153.337 254.129C152.423 256.869 150.597 259.609 149.227 262.349C146.943 266.916 146.487 272.396 146.03 277.419C145.573 280.159 146.03 283.813 146.487 286.553C146.943 289.749 146.943 292.946 146.943 296.143C146.943 299.339 144.66 302.993 142.833 305.276C141.007 307.559 137.81 308.473 135.527 310.756C133.7 312.583 131.417 314.409 130.503 317.149C130.047 318.063 130.503 319.433 130.503 320.803C130.047 323.543 129.133 325.826 129.133 328.566C128.677 331.763 128.677 334.96 128.677 338.613C128.677 340.44 128.677 341.81 128.677 343.636C128.677 345.463 129.133 346.833 129.59 348.203C129.59 349.116 129.59 350.486 129.59 351.4C129.59 352.77 130.503 354.14 130.503 355.053C131.417 358.25 131.873 360.99 132.33 364.186C132.787 366.926 134.157 369.666 134.613 372.406C135.983 376.06 136.44 379.713 137.353 383.823C137.81 386.563 137.81 389.76 138.267 392.5C138.723 394.783 139.18 397.067 139.18 399.35C139.18 403.003 138.267 406.2 138.267 409.853C138.267 415.79 140.55 421.727 141.92 427.663C142.377 429.49 142.833 430.86 143.29 432.687C128.22 403.46 120 370.123 120 334.96C120 292.033 132.33 252.302 153.793 218.966C162.927 204.809 173.43 191.565 185.76 180.149C224.577 142.245 278.008 118.955 336.461 118.955C341.028 118.955 346.051 118.955 350.618 119.412C378.931 118.955 406.331 126.262 430.992 138.592Z" fill="url(#paint3_linear_17416_2)"/>
<path opacity="0.1" fill-rule="evenodd" clip-rule="evenodd" d="M349.707 434.513C349.707 434.513 369.8 464.197 396.744 488.4C423.687 512.604 427.341 529.044 427.341 529.044C427.341 529.044 478.031 508.037 514.108 457.803C550.185 408.026 349.707 434.513 349.707 434.513Z" fill="black"/>
<path opacity="0.4" fill-rule="evenodd" clip-rule="evenodd" d="M386.244 122.609C374.37 119.869 362.497 118.042 349.71 117.129C347.427 117.129 344.687 116.672 342.403 116.672C347.427 119.412 352.45 124.435 353.363 129.915C355.19 139.049 358.387 147.269 359.757 155.945C361.584 164.622 361.127 175.582 357.017 183.346C354.734 188.369 351.537 192.479 347.427 196.589C344.687 199.329 341.947 201.156 340.12 204.809C338.293 208.462 336.01 211.659 333.727 214.856C330.53 219.879 326.877 224.902 322.767 229.469C321.397 231.296 320.027 232.209 318.657 234.036C317.287 236.319 316.373 238.603 314.547 240.429C310.437 244.539 304.5 247.279 299.477 249.106C292.627 251.846 286.69 254.586 280.296 258.239C271.163 263.263 263.4 269.199 252.896 269.656C249.243 269.656 245.59 269.199 241.936 269.656C237.37 270.113 233.26 271.939 229.15 272.853C225.496 273.766 221.386 274.223 217.733 275.136C211.339 276.049 206.316 278.333 200.379 279.703C192.616 281.529 184.396 281.073 176.176 282.443C168.869 283.356 162.933 284.269 155.626 282.443C144.666 279.703 138.729 274.679 141.012 262.806C142.382 255.043 141.926 249.106 138.272 243.626C129.596 262.349 123.659 282.899 120.919 303.906C125.942 306.19 131.879 307.103 136.902 307.56C152.886 309.386 170.239 302.08 184.853 296.6C192.159 293.859 199.923 289.749 208.143 288.836C216.819 287.923 224.126 288.836 232.803 287.009C262.03 279.703 290.8 269.656 317.287 254.129C328.247 247.736 332.813 238.603 340.577 229.469C346.97 221.249 354.733 214.856 362.497 208.006C370.26 201.156 377.11 194.762 381.677 185.629C386.7 176.039 390.81 165.079 393.094 154.575C395.377 142.702 392.18 131.742 386.244 122.609ZM384.874 151.835C384.417 154.119 383.96 156.859 383.504 159.142C381.677 165.079 378.024 171.016 372.544 173.756C370.26 175.126 366.607 174.212 365.237 171.929C364.324 170.559 364.324 168.732 364.324 167.362C363.867 164.165 363.41 161.425 363.41 158.229C363.41 150.922 363.41 143.615 362.497 136.309C363.41 140.419 362.497 129.915 368.89 127.175C372.087 125.805 376.654 127.175 378.937 129.459C381.677 132.655 382.59 137.679 383.504 141.332C384.417 145.442 385.33 148.182 384.874 151.835Z" fill="url(#paint4_linear_17416_2)"/>
<path opacity="0.4" fill-rule="evenodd" clip-rule="evenodd" d="M353.358 497.533C352.901 497.533 351.988 497.989 351.531 497.989L355.641 498.446C355.641 497.989 354.728 497.533 353.358 497.533ZM353.358 497.533C352.901 497.533 351.988 497.989 351.531 497.989L355.641 498.446C355.641 497.989 354.728 497.533 353.358 497.533ZM546.072 280.615C546.072 286.095 544.246 292.031 544.246 297.512C544.246 305.275 542.876 311.212 541.049 318.518C539.679 323.542 536.939 327.195 535.569 332.218C533.742 337.698 531.002 342.722 528.262 347.745C522.782 357.792 516.846 368.295 514.562 379.712C512.279 390.215 511.822 398.892 506.799 408.482C501.775 417.616 494.469 425.379 488.989 434.512C486.705 438.622 484.879 438.622 480.769 441.362C476.659 444.559 472.549 449.126 468.439 452.322C459.762 459.172 451.542 464.196 440.582 468.306C433.732 471.046 427.338 472.873 420.032 473.786C415.465 474.699 410.898 473.786 406.332 474.699C399.025 476.069 392.175 477.896 384.868 480.179C373.451 483.833 361.578 486.116 350.161 489.769C341.941 492.053 334.178 493.879 325.958 495.249C320.934 496.163 316.824 498.903 311.801 497.989C306.778 497.076 301.754 495.249 296.731 493.423C290.338 491.596 284.858 491.139 278.007 491.139C268.874 491.139 257.914 492.509 248.324 490.683C237.821 488.856 227.774 485.659 217.271 483.833C210.877 482.463 206.31 479.723 200.374 477.439C194.894 474.699 189.414 474.243 183.477 472.416C177.54 470.589 171.604 467.849 165.667 466.479C174.8 478.353 185.304 489.313 197.177 498.903C227.774 524.933 265.677 542.286 307.691 547.766C313.171 548.223 318.651 549.136 324.588 549.136C336.918 546.396 348.791 542.743 361.121 539.09C381.671 532.696 399.482 520.366 420.032 514.429C427.795 512.146 434.645 509.863 441.495 506.209C446.975 503.469 452.455 503.013 457.479 500.729C476.659 492.509 490.815 474.243 499.492 455.976C503.145 447.756 506.799 438.622 514.105 432.229C516.846 429.489 520.499 427.662 522.782 424.466C525.522 421.269 527.349 417.616 530.089 413.962C534.656 408.025 538.766 401.632 542.876 395.695C543.332 394.782 543.789 394.325 544.246 393.412C549.726 374.232 552.466 354.139 552.466 333.588C552.466 314.865 550.182 297.512 546.072 280.615ZM347.421 498.903C348.335 498.446 349.248 497.533 350.161 497.076C351.075 496.619 352.445 497.076 353.358 497.533C355.185 497.076 356.555 497.076 357.925 497.989C358.838 498.446 360.208 499.359 360.665 500.273C361.121 501.186 360.665 501.643 359.751 502.556C358.838 503.469 358.381 503.469 357.011 503.469C354.728 503.926 352.445 504.383 349.705 503.926C348.335 503.926 346.051 503.469 345.138 502.556C345.138 500.729 346.508 499.816 347.421 498.903ZM361.578 527.216C360.208 529.043 358.838 530.869 357.011 531.783C355.185 533.153 353.358 533.609 351.988 534.979C347.421 537.263 342.855 540.003 338.288 541.373C336.461 541.83 334.178 541.83 332.351 541.83C330.068 542.286 327.328 542.286 325.044 542.286C322.304 542.286 319.108 542.743 316.368 543.2C313.628 543.2 310.431 543.656 307.691 543.656C302.668 544.113 298.558 543.2 293.991 541.373C289.881 540.003 285.771 537.72 282.118 535.436C279.378 533.61 277.094 531.326 275.268 529.043C272.984 527.216 271.614 524.933 270.244 522.193C269.788 521.279 269.331 520.366 269.788 518.996C269.788 518.539 270.244 518.083 270.244 518.083C271.158 517.626 272.071 516.713 272.528 516.713C273.898 515.799 275.724 515.799 277.551 515.343C281.661 514.886 285.771 515.343 289.881 515.799C292.164 515.799 294.448 516.256 296.731 515.799C299.928 515.343 303.124 514.429 305.864 513.516C313.171 511.689 320.478 509.863 327.785 509.406C335.091 508.493 343.311 507.579 350.618 508.949C353.358 509.406 357.011 510.319 359.295 511.689C361.121 513.059 362.491 514.886 363.405 516.713C364.775 520.366 363.861 524.019 361.578 527.216ZM419.118 508.493C417.748 509.863 415.922 510.776 414.095 512.146C411.812 513.973 409.528 514.886 407.245 516.256C405.418 517.626 403.135 518.539 401.308 519.453C399.025 520.366 397.198 521.279 394.915 522.649C392.631 523.563 390.348 524.476 388.065 525.389C386.238 525.846 384.412 526.759 382.585 526.303C381.215 525.846 379.388 525.389 378.475 524.476C376.648 522.649 377.105 520.823 377.561 519.909C377.561 518.539 377.105 516.256 377.561 514.429C378.018 513.516 378.931 512.146 379.388 511.233C381.215 507.579 383.955 505.296 386.695 502.556C388.978 500.273 391.718 498.446 394.915 497.076C398.568 495.706 403.135 495.249 406.788 494.793C410.898 494.336 418.205 493.879 420.488 498.903C421.858 502.099 421.402 505.296 419.118 508.493ZM356.098 497.989C355.641 497.989 354.728 497.533 353.815 497.076C353.358 497.076 352.445 497.533 351.988 497.533L356.098 497.989Z" fill="url(#paint5_linear_17416_2)"/>
<path opacity="0.4" fill-rule="evenodd" clip-rule="evenodd" d="M528.721 234.491V235.405C528.264 241.341 525.981 245.451 523.698 250.931C521.871 255.498 520.044 259.151 517.761 263.261C514.108 270.112 512.281 276.505 509.541 284.268C504.974 295.685 503.148 308.015 496.297 318.518C490.361 328.108 488.534 339.525 483.967 349.572C478.487 360.989 469.811 368.752 460.677 376.972C456.567 380.625 452.914 385.192 449.26 389.302C445.15 393.412 442.411 398.892 437.387 402.546C427.34 409.852 415.924 416.246 405.877 424.009C399.94 428.576 395.83 434.969 388.98 438.622C382.587 442.732 375.28 445.472 368.887 449.126C362.95 452.779 357.013 456.433 350.62 459.173C343.313 461.913 337.377 460.999 329.613 461.456C321.393 461.913 312.717 464.196 304.953 466.936C298.56 469.219 293.08 471.503 286.23 469.219C281.663 467.849 278.01 464.653 273.443 463.739C262.483 461.456 250.609 463.739 239.649 463.283C230.973 462.826 221.839 460.999 213.163 459.173C204.943 457.803 198.093 451.866 190.329 449.582C180.282 446.842 168.866 449.126 159.732 445.472C155.622 444.102 151.969 440.906 148.772 438.622C147.859 438.166 147.402 437.709 146.489 437.252C145.119 434.969 143.749 432.229 142.379 429.946C144.662 430.859 146.946 431.772 149.229 433.142C161.559 439.079 177.086 438.166 190.329 440.449C205.399 443.189 220.469 446.842 235.539 448.669C241.933 449.582 247.869 449.126 254.263 448.669C262.94 447.756 271.616 447.756 280.293 446.386C294.906 443.646 309.52 436.796 324.59 438.622C327.33 439.079 330.527 440.449 333.267 440.449C337.377 440.449 340.573 436.796 343.77 434.512C349.707 430.859 356.1 431.316 361.58 426.292C366.603 421.269 372.54 418.072 378.933 414.876C395.374 406.656 408.617 392.956 421.86 379.712C432.82 368.752 443.324 357.335 450.631 344.092C457.937 330.848 456.567 314.865 462.047 301.165C466.157 291.118 469.354 281.985 475.747 273.308C478.944 269.198 482.597 265.545 485.794 261.435C489.447 257.325 491.274 252.758 494.014 247.735C496.754 242.255 500.864 237.688 503.148 231.751C505.431 226.271 504.974 221.705 504.974 215.768C504.974 209.831 504.974 203.438 504.974 197.044C514.564 210.288 522.328 222.161 528.721 234.491Z" fill="url(#paint6_linear_17416_2)"/>
<path opacity="0.4" fill-rule="evenodd" clip-rule="evenodd" d="M494.469 185.628C492.185 183.345 489.902 180.605 487.619 178.322C471.179 161.881 451.998 148.638 430.992 138.135C430.535 137.678 430.078 137.678 429.165 137.221C425.968 135.851 422.772 134.481 419.575 133.111C415.008 131.285 410.898 129.458 406.331 128.088C407.702 129.001 409.528 129.915 409.985 129.915C412.725 131.285 415.008 132.198 416.835 134.481C418.662 136.765 419.575 138.591 419.575 141.788C419.575 144.528 420.032 147.725 420.488 150.465C420.945 153.205 422.315 155.488 422.772 158.228C423.228 159.598 423.228 160.968 423.685 162.795C424.598 166.448 425.968 170.101 426.882 173.755C428.252 180.605 424.598 186.085 422.315 192.022C418.662 201.612 416.378 211.202 413.182 221.248C410.898 229.012 406.788 236.775 400.852 242.712C394.915 248.192 386.238 249.562 381.215 255.499C376.648 260.979 371.168 266.002 364.775 268.742C357.468 272.395 349.248 275.135 341.485 277.419C336.005 279.245 330.068 279.245 324.131 280.615C316.824 282.442 310.431 286.095 304.038 288.835C296.731 292.032 290.338 295.685 283.031 298.882C275.724 302.079 269.331 306.189 262.024 308.929C258.371 310.299 254.717 311.212 251.521 312.126C244.214 314.866 237.364 319.432 229.601 320.346C226.861 320.802 224.12 321.259 221.38 321.259C219.097 321.259 217.271 321.716 215.444 322.172C208.594 324.912 204.484 332.219 196.72 332.676C189.414 332.676 182.564 332.219 175.714 333.132C172.06 333.589 168.864 333.132 165.667 333.589C164.754 333.589 163.384 334.046 162.47 333.589C161.557 333.132 160.187 332.219 158.817 331.306C156.077 329.936 153.793 328.109 151.51 326.282C146.943 322.629 141.007 324.912 135.983 323.542C134.613 323.086 132.33 323.542 130.96 322.629C127.763 320.802 123.653 316.692 120.913 314.409C120.457 320.346 120 326.282 120 332.219C120 342.722 120.913 352.769 122.283 362.816C122.74 367.383 123.653 371.949 124.567 376.973C125.937 383.366 127.763 390.216 129.59 396.153C132.33 404.829 135.527 413.506 139.18 421.726C145.117 422.64 151.053 423.553 156.99 422.64C165.667 421.27 173.887 419.9 182.564 420.356C190.784 420.813 198.09 423.553 205.854 424.923C214.53 426.293 223.664 427.663 232.797 428.12C241.017 428.576 249.237 429.49 257.001 430.403C262.937 431.316 269.331 432.23 275.268 432.686C291.251 433.6 306.778 429.49 322.304 428.12C330.068 427.206 337.831 425.38 345.595 423.553C350.161 422.64 354.728 421.27 358.838 418.53C364.318 414.876 367.971 409.853 372.538 405.743C378.018 401.176 383.498 396.609 388.978 392.499C393.545 388.846 398.112 384.736 403.135 381.539C406.788 379.256 410.898 376.516 414.552 373.776C421.402 368.296 427.338 361.903 433.275 355.052C441.495 345.462 444.692 332.219 447.888 320.346C451.085 309.386 452.912 298.882 458.848 288.835C461.588 284.269 463.872 278.789 465.242 273.309C466.155 270.112 466.612 266.002 467.982 262.805C470.265 257.782 475.289 253.672 478.029 249.105C480.312 245.452 483.052 241.799 484.422 237.232C487.619 229.012 489.902 220.792 491.272 211.658C492.185 205.265 494.469 198.872 496.295 192.478C496.752 191.565 496.752 190.195 497.209 189.282C497.209 188.825 495.839 186.998 494.469 185.628ZM212.704 333.589C213.16 332.676 221.381 329.479 222.294 329.022C222.294 329.022 222.294 329.022 221.837 329.022L216.357 331.306C222.294 329.479 232.797 335.416 227.774 341.809C226.404 343.636 222.294 344.549 220.011 345.006C217.727 345.462 216.357 344.549 214.987 342.722C213.617 340.896 212.704 338.156 212.704 335.872C212.704 335.416 212.704 334.046 212.704 333.589ZM148.313 391.586C141.92 389.759 137.81 387.476 134.157 381.996C131.417 378.343 129.59 375.146 128.677 371.036C128.22 367.383 126.85 364.643 127.763 360.989C128.22 358.249 129.59 355.052 130.96 352.769C132.33 350.029 134.613 346.832 134.613 345.919C141.007 345.462 146.943 345.006 152.88 345.006C159.73 345.006 167.037 345.919 173.887 345.919C177.084 345.919 180.28 345.919 183.477 345.462C186.674 345.006 189.414 344.092 192.61 343.636C198.09 342.722 203.114 342.266 208.137 344.549C211.79 346.376 213.617 350.942 215.444 354.596C216.357 356.879 217.27 358.249 217.27 360.989C217.27 364.186 217.27 366.926 216.814 369.666C216.814 370.579 216.357 371.949 216.357 372.863C211.79 382.453 199.917 385.649 190.784 389.303C177.084 394.783 162.013 395.239 148.313 391.586ZM245.584 412.593C242.844 419.899 230.971 422.183 224.121 422.64C220.924 422.64 216.814 422.183 213.617 420.356C211.791 419.443 210.42 417.616 209.05 415.789C208.137 414.419 206.767 412.136 203.114 413.049C204.027 408.939 204.94 405.286 206.767 401.633C208.137 399.806 209.964 398.436 211.79 396.609C214.987 393.869 218.641 391.129 222.294 389.303C228.231 386.106 234.624 388.389 240.104 391.129C244.214 392.956 246.954 395.696 247.867 399.806C249.237 404.829 247.411 408.026 245.584 412.593ZM325.958 411.223C323.674 416.246 320.478 417.616 315.911 420.356C310.431 423.096 303.124 425.38 297.188 425.38C293.991 425.38 290.794 424.01 288.054 422.64C286.228 421.726 283.944 421.269 282.574 419.899C278.464 415.789 277.551 410.309 280.291 411.223C278.464 407.569 277.551 403.916 277.094 400.263C278.008 399.806 278.464 398.893 278.464 397.979C280.747 393.869 284.857 390.216 289.424 387.933C296.731 383.823 306.321 382.909 314.541 386.563C318.194 387.933 320.478 389.759 322.761 392.499C324.131 393.869 325.501 394.783 326.871 396.609C328.241 400.263 327.328 407.113 325.958 411.223ZM350.161 410.309C348.791 411.223 346.508 413.049 345.138 413.049C343.768 412.593 341.485 410.309 341.485 408.483L340.571 407.569C342.398 404.373 344.225 401.633 346.051 398.436C348.791 399.806 351.531 399.349 353.358 402.546C355.641 405.743 352.445 408.483 350.161 410.309ZM411.812 266.459C409.528 269.655 406.332 272.852 402.678 274.222C398.112 276.049 391.718 277.875 391.261 270.569C391.261 266.459 391.718 263.262 393.545 259.609C396.285 254.129 398.568 252.759 404.048 250.019C405.875 250.019 408.158 250.932 409.528 251.389C412.268 252.302 415.008 255.042 415.465 258.239C415.922 261.435 413.638 264.175 411.812 266.459ZM468.895 235.862C466.612 243.169 463.415 250.019 460.219 256.412C456.565 264.632 456.108 273.309 453.825 281.985C452.912 287.009 450.172 292.489 445.605 294.315C443.322 295.229 441.495 294.772 439.212 294.772C436.928 294.772 433.275 295.685 433.275 297.512C431.905 293.859 430.078 289.292 429.165 285.639C428.252 281.529 427.795 276.962 427.338 272.395C426.425 267.829 426.425 263.262 425.968 258.695C425.512 254.585 424.598 250.019 424.598 245.909C424.598 231.752 432.818 213.942 446.062 207.548C450.172 205.722 454.282 204.808 458.848 205.265C463.872 206.178 467.069 207.548 469.352 212.572C472.092 219.422 470.722 228.555 468.895 235.862Z" fill="url(#paint7_linear_17416_2)"/>
<path opacity="0.4" fill-rule="evenodd" clip-rule="evenodd" d="M406.65 254.635C406.194 255.091 405.28 255.091 404.824 255.548C403.454 255.548 402.54 255.091 401.627 255.548L406.65 254.635Z" fill="url(#paint8_linear_17416_2)"/>
<path fill-rule="evenodd" clip-rule="evenodd" d="M344.092 359.668C334.959 355.101 345.462 314.458 354.596 305.324C363.729 296.191 387.933 317.198 390.673 334.095C393.869 351.448 365.556 369.715 344.092 359.668Z" fill="url(#paint9_linear_17416_2)"/>
<path opacity="0.4" fill-rule="evenodd" clip-rule="evenodd" d="M134.158 345.919C133.702 345.919 133.245 345.919 133.245 345.919C134.158 345.462 134.158 345.462 134.158 345.919Z" fill="url(#paint10_linear_17416_2)"/>
<path fill-rule="evenodd" clip-rule="evenodd" d="M377.562 120.781L415.466 105.711C415.466 105.711 475.746 129.001 514.107 180.605L516.39 213.485C516.39 213.485 444.236 185.628 377.562 120.781Z" fill="url(#paint11_linear_17416_2)"/>
<path fill-rule="evenodd" clip-rule="evenodd" d="M515.479 454.606C515.479 454.606 483.512 489.313 459.765 496.62L440.129 502.556C440.129 502.556 350.165 470.133 345.141 413.962C341.031 366.469 421.862 293.858 443.782 285.182C465.702 276.505 491.276 281.528 491.276 281.528L515.479 454.606Z" fill="url(#paint12_linear_17416_2)"/>
<path fill-rule="evenodd" clip-rule="evenodd" d="M491.276 281.529C472.096 275.592 390.352 313.496 367.976 397.979C363.409 415.333 404.966 480.637 454.743 496.62C471.183 502.1 546.99 435.883 550.187 391.129C553.383 346.376 519.59 290.662 491.276 281.529Z" fill="url(#paint13_linear_17416_2)"/>
<path fill-rule="evenodd" clip-rule="evenodd" d="M373.453 408.026C385.327 312.125 472.55 280.615 491.731 286.552C505.431 291.119 525.524 311.212 537.397 330.849C525.524 306.189 507.714 286.095 491.731 281.072C472.55 275.135 390.807 313.039 368.43 397.522C367.06 403.459 370.713 415.333 378.933 429.033C373.91 420.356 372.54 412.593 373.453 408.026Z" fill="url(#paint14_linear_17416_2)"/>
<path opacity="0.3" fill-rule="evenodd" clip-rule="evenodd" d="M212.708 511.234C212.708 511.234 232.345 518.54 246.502 514.43C246.502 514.43 251.982 468.307 234.628 438.623C217.275 408.94 187.591 453.693 187.591 453.693L180.741 482.007C180.741 482.007 197.181 501.644 212.708 511.234Z" fill="black"/>
<path fill-rule="evenodd" clip-rule="evenodd" d="M229.604 503.927L241.934 500.731C241.934 500.731 247.871 475.157 237.367 445.93C225.494 413.05 181.654 388.39 175.26 387.933C168.867 387.477 162.474 402.09 162.474 402.09L229.604 503.927Z" fill="url(#paint15_linear_17416_2)"/>
<path fill-rule="evenodd" clip-rule="evenodd" d="M427.338 529.044L406.332 555.987C406.332 555.987 370.255 573.341 333.721 565.121L307.234 547.311L427.338 529.044Z" fill="url(#paint16_linear_17416_2)"/>
<path fill-rule="evenodd" clip-rule="evenodd" d="M153.341 422.182C155.624 412.135 164.301 395.695 172.065 393.868C179.828 392.042 217.275 427.662 225.951 450.495C234.628 473.329 230.062 498.446 229.605 503.469C229.148 508.492 187.135 494.336 165.671 476.982C144.664 459.629 153.341 422.182 153.341 422.182Z" fill="url(#paint17_linear_17416_2)"/>
<path fill-rule="evenodd" clip-rule="evenodd" d="M225.949 450.497C217.272 427.663 180.282 392.5 172.062 393.87C168.865 394.327 165.669 397.523 162.929 401.177C164.755 399.35 166.582 398.437 168.409 397.98C176.172 396.153 214.076 424.467 222.752 447.3C233.256 475.157 227.319 495.25 226.406 504.384C228.232 504.384 229.602 504.384 229.602 503.471C230.059 498.447 234.626 473.33 225.949 450.497Z" fill="url(#paint18_linear_17416_2)"/>
<path fill-rule="evenodd" clip-rule="evenodd" d="M352.449 350.942C345.142 347.289 353.362 313.495 360.669 305.732C367.976 298.425 387.156 315.779 389.896 329.935C392.636 344.092 369.802 359.162 352.449 350.942Z" fill="url(#paint19_linear_17416_2)"/>
<path fill-rule="evenodd" clip-rule="evenodd" d="M415.466 105.711C415.466 105.711 417.293 128.544 443.323 156.858C469.353 185.171 514.107 180.605 514.107 180.605L516.39 213.485C516.39 213.485 421.403 171.471 377.562 120.781L415.466 105.711Z" fill="url(#paint20_linear_17416_2)"/>
<path fill-rule="evenodd" clip-rule="evenodd" d="M489.908 309.843C488.995 310.756 486.255 312.583 488.538 313.953C488.995 314.41 489.452 313.953 489.908 314.41C490.365 314.41 490.365 314.866 490.822 314.866C492.192 313.953 491.735 309.386 489.908 309.843Z" fill="#0EDBFF"/>
<path fill-rule="evenodd" clip-rule="evenodd" d="M579.415 271.482C578.502 272.396 575.762 274.223 578.045 275.593C578.502 276.049 578.958 275.593 579.415 276.049C579.872 276.049 579.872 276.506 580.328 276.506C582.155 275.136 581.242 271.026 579.415 271.482Z" fill="#0EDBFF"/>
<path fill-rule="evenodd" clip-rule="evenodd" d="M540.141 430.403C539.227 431.316 536.487 433.143 538.771 434.513C539.227 434.97 539.684 434.513 540.141 434.97C540.597 434.97 540.597 435.426 541.054 435.426C542.881 434.513 541.967 429.946 540.141 430.403Z" fill="#0EDBFF"/>
<path fill-rule="evenodd" clip-rule="evenodd" d="M497.671 325.826C498.584 325.369 499.041 325.369 499.954 325.369C499.954 326.282 500.868 328.109 499.498 329.023C498.584 329.479 498.584 327.652 498.128 327.196L497.671 325.826Z" fill="#0EDBFF"/>
<path fill-rule="evenodd" clip-rule="evenodd" d="M355.647 335.416C357.017 335.873 358.387 336.786 359.757 337.243C360.213 336.786 360.67 336.786 361.583 336.786C362.497 336.33 362.953 335.416 362.953 334.503C363.41 333.133 362.953 332.22 362.04 331.306C361.583 330.85 361.127 329.936 360.67 329.48C360.213 329.023 358.843 329.023 357.93 329.48C357.017 329.936 356.56 330.85 356.103 331.763C355.647 332.676 354.733 333.59 354.733 334.503C354.733 335.416 355.647 336.33 356.103 337.243L355.647 335.416Z" fill="#0EDBFF"/>
<path fill-rule="evenodd" clip-rule="evenodd" d="M153.799 443.19C155.169 443.647 156.539 444.56 157.909 445.017C158.366 444.56 158.822 444.56 159.736 444.56C160.649 444.104 161.106 443.19 161.106 442.277C161.563 440.907 161.106 439.994 160.192 439.08C159.736 438.624 159.279 437.71 158.823 437.254C158.366 436.797 156.996 436.797 156.082 437.254C155.169 437.71 154.713 438.624 154.256 439.537C153.799 440.45 152.886 441.364 152.886 442.277C152.886 443.19 153.799 444.104 154.256 445.017L153.799 443.19Z" fill="#0EDBFF"/>
<path fill-rule="evenodd" clip-rule="evenodd" d="M546.991 499.36C548.361 499.817 549.731 500.73 551.101 501.187C551.557 500.73 552.014 500.73 552.927 500.73C553.841 500.274 554.297 499.36 554.297 498.447C554.754 497.077 554.297 496.164 553.384 495.25C552.927 494.794 552.47 493.88 552.014 493.424C551.557 492.967 550.187 492.967 549.274 493.424C548.361 493.88 547.904 494.794 547.447 495.707C546.99 496.62 546.077 497.534 546.077 498.447C546.077 499.36 546.99 500.274 547.447 501.187L546.991 499.36Z" fill="#0EDBFF"/>
<path fill-rule="evenodd" clip-rule="evenodd" d="M518.677 460.087C520.047 460.544 521.417 461.457 522.787 461.914C523.244 461.457 523.7 461.457 524.614 461.457C525.527 461 525.984 460.087 525.984 459.174C526.44 457.804 525.984 456.89 525.07 455.977C524.614 455.52 524.157 454.607 523.7 454.15C523.244 453.693 521.874 453.693 520.96 454.15C520.047 454.607 519.59 455.52 519.134 456.433C518.677 457.347 517.764 458.26 517.764 459.174C517.764 460.087 518.677 461 519.134 461.914L518.677 460.087Z" fill="#0EDBFF"/>
<path fill-rule="evenodd" clip-rule="evenodd" d="M126.399 187.912C130.052 189.282 133.705 190.652 137.359 192.479C138.729 191.565 140.099 191.565 141.469 190.652C143.295 189.282 144.665 186.999 145.579 185.172C146.492 181.975 145.122 179.692 143.752 177.409C142.839 176.039 141.926 173.755 140.556 172.385C138.729 171.015 135.532 171.472 133.705 172.385C131.422 173.299 130.052 175.582 128.682 177.409C127.312 179.235 125.942 182.432 125.485 184.715C125.485 186.999 127.312 189.739 129.139 191.109L126.399 187.912Z" fill="#0EDBFF"/>
<path fill-rule="evenodd" clip-rule="evenodd" d="M364.779 56.3914C368.433 57.7614 372.086 59.1314 375.74 60.9581C377.11 60.0447 378.48 60.0448 379.85 59.1314C381.676 57.7614 383.046 55.4781 383.96 53.6514C384.873 50.4547 383.503 48.1714 382.133 45.888C381.22 44.518 380.306 42.2347 378.936 40.8647C377.11 39.4946 373.913 39.9513 372.086 40.8647C369.803 41.778 368.433 44.0613 367.063 45.888C365.693 47.7147 364.323 50.9114 363.866 53.1947C363.866 55.4781 365.693 58.2181 367.52 59.5881L364.779 56.3914Z" fill="#0EDBFF"/>
<path fill-rule="evenodd" clip-rule="evenodd" d="M396.291 371.036C395.834 371.493 395.378 371.949 394.921 372.863C395.378 373.776 395.834 374.233 396.748 374.689C397.204 374.689 397.661 374.689 398.118 374.689C398.574 374.233 398.118 373.776 398.574 373.319C399.031 372.406 399.031 371.949 398.574 371.036C398.118 370.579 398.118 370.123 397.661 370.123C397.204 370.123 396.291 370.123 396.291 370.579V371.036Z" fill="#0EDBFF"/>
<path fill-rule="evenodd" clip-rule="evenodd" d="M399.487 393.87C399.487 394.326 398.117 397.066 399.487 396.153C400.4 395.696 400.4 394.326 399.487 393.87C399.943 393.87 399.943 393.87 399.487 393.87Z" fill="#0EDBFF"/>
<path fill-rule="evenodd" clip-rule="evenodd" d="M471.184 434.97C470.27 436.34 470.27 436.797 469.813 438.167C470.27 438.624 471.184 438.624 471.64 438.624C472.554 438.624 472.554 438.167 472.554 437.71C472.554 437.254 473.01 436.34 472.554 435.883C472.097 434.97 471.64 434.514 471.184 434.97Z" fill="#0EDBFF"/>
<path fill-rule="evenodd" clip-rule="evenodd" d="M410.903 373.777C411.36 374.233 411.817 374.69 411.817 375.603C410.903 375.603 410.903 375.147 410.903 374.233C410.903 373.32 411.36 373.777 411.817 372.863C411.817 372.863 411.817 372.863 412.273 372.863L410.903 373.777Z" fill="#0EDBFF"/>
<path fill-rule="evenodd" clip-rule="evenodd" d="M479.404 312.582C478.947 313.039 478.491 313.496 478.034 313.953C478.491 314.409 478.034 315.323 478.947 315.323C479.404 315.323 479.861 314.866 480.318 313.953C480.774 313.496 480.774 313.039 480.774 312.126C480.774 311.669 480.774 310.299 480.318 311.213L479.404 312.582Z" fill="#0EDBFF"/>
<path fill-rule="evenodd" clip-rule="evenodd" d="M469.813 153.205C470.727 153.205 471.183 152.749 472.097 152.749C472.097 152.749 472.554 152.749 473.01 152.749C473.924 152.749 473.924 152.749 473.924 153.205C474.38 153.662 474.38 154.575 474.38 155.032C473.923 157.772 470.27 153.662 471.64 152.749L469.813 153.205Z" fill="#0EDBFF"/>
<path fill-rule="evenodd" clip-rule="evenodd" d="M179.373 158.229C178.003 158.686 176.176 158.686 176.176 160.056C176.176 161.426 178.002 162.339 178.916 162.796C180.743 163.252 183.482 163.709 184.396 161.426C184.852 160.056 184.396 157.772 183.939 156.859C182.569 154.576 179.373 155.489 177.089 156.402L179.373 158.229Z" fill="#0EDBFF"/>
<path fill-rule="evenodd" clip-rule="evenodd" d="M487.625 437.711C487.168 433.601 486.255 429.491 489.908 427.207C491.735 425.837 495.388 425.837 497.671 427.207C499.041 428.121 500.411 429.947 500.868 431.317C502.238 433.601 501.781 433.601 501.325 435.427C499.955 439.994 498.585 442.734 494.475 442.734C488.538 442.734 487.625 438.167 487.625 432.687V437.711Z" fill="#0EDBFF"/>
<path fill-rule="evenodd" clip-rule="evenodd" d="M490.363 321.26C492.19 320.803 493.56 319.89 494.473 318.52C493.103 317.607 490.82 316.237 490.363 318.52V321.26Z" fill="#0EDBFF"/>
<path fill-rule="evenodd" clip-rule="evenodd" d="M162.933 426.75C164.759 426.293 166.129 425.38 167.043 424.01C165.673 423.096 163.389 421.726 162.933 424.01V426.75Z" fill="#0EDBFF"/>
<path fill-rule="evenodd" clip-rule="evenodd" d="M162.933 461.456C164.759 461 166.129 460.086 167.043 458.716C165.673 457.803 163.389 456.433 162.933 458.716V461.456Z" fill="#0EDBFF"/>
<path fill-rule="evenodd" clip-rule="evenodd" d="M407.707 337.243C409.534 335.416 411.817 331.763 414.557 333.59C416.384 334.96 416.841 337.7 415.014 339.07C413.644 339.983 412.274 340.44 410.447 340.896C409.077 341.353 407.251 340.44 407.707 338.613V337.243Z" fill="#0EDBFF"/>
<path fill-rule="evenodd" clip-rule="evenodd" d="M462.051 426.75C463.878 424.924 466.161 421.27 468.901 423.097C470.728 424.467 471.184 427.207 469.358 428.577C467.988 429.49 466.618 429.947 464.791 430.404C463.421 430.86 461.594 429.947 462.051 428.12V426.75Z" fill="#0EDBFF"/>
<path fill-rule="evenodd" clip-rule="evenodd" d="M453.83 129.915C456.114 130.371 460.681 130.371 460.224 134.025C460.224 135.851 457.484 138.135 455.657 137.221C453.831 136.308 452.917 135.395 451.547 134.025C450.634 133.111 450.177 130.828 452.461 130.371L453.83 129.915Z" fill="#0EDBFF"/>
<path fill-rule="evenodd" clip-rule="evenodd" d="M444.697 450.04C446.523 448.213 448.807 444.56 451.547 446.387C453.373 447.757 453.83 450.497 452.003 451.867C450.633 452.78 449.263 453.237 447.437 453.693C446.067 454.15 444.24 453.237 444.697 451.41V450.04Z" fill="#0EDBFF"/>
<path fill-rule="evenodd" clip-rule="evenodd" d="M370.717 334.046C368.89 335.416 365.237 336.786 364.78 339.982C364.78 341.809 365.237 342.722 367.064 343.636C368.434 344.092 370.26 344.092 371.63 343.636C373.457 342.722 375.74 340.896 376.654 339.069C377.11 337.699 377.11 336.786 376.654 335.416C376.197 334.502 375.74 333.589 374.827 333.589C372.087 332.676 370.717 335.416 368.89 336.329L370.717 334.046Z" fill="#0EDBFF"/>
<path fill-rule="evenodd" clip-rule="evenodd" d="M377.567 326.74C378.48 327.196 379.85 327.653 380.307 328.566C379.394 329.023 378.024 329.936 376.654 329.48C375.284 329.023 374.827 327.653 375.284 326.283C375.284 325.37 376.654 324 377.567 324.456C378.024 324.456 378.024 325.37 378.024 325.37C378.48 326.283 378.48 325.826 378.024 326.74H377.567Z" fill="#0EDBFF"/>
<path fill-rule="evenodd" clip-rule="evenodd" d="M434.193 314.409C428.713 318.976 423.69 324.913 420.95 331.763C419.58 335.416 421.863 335.416 425.06 334.96C430.996 333.589 437.39 332.219 443.326 330.393C446.98 329.479 452.003 327.653 454.286 324.456C456.113 322.173 457.026 318.063 456.57 315.323C456.113 311.213 452.916 309.843 449.263 308.473C440.586 306.189 428.713 315.323 425.516 323.086L434.193 314.409Z" fill="#0EDBFF"/>
<path fill-rule="evenodd" clip-rule="evenodd" d="M404.053 345.463C405.88 345.463 407.25 345.92 409.077 346.833C408.62 347.29 408.62 348.203 408.62 348.66C408.163 349.573 407.25 350.487 406.794 350.943C405.424 351.857 403.14 352.313 401.77 351.4C397.203 349.573 404.053 344.093 405.88 346.377L404.053 345.463Z" fill="#0EDBFF"/>
<path fill-rule="evenodd" clip-rule="evenodd" d="M150.145 518.541C149.689 518.997 149.232 519.454 148.775 520.367C149.232 521.281 149.689 521.737 150.602 522.194C151.059 522.194 151.515 522.194 151.972 522.194C152.429 521.737 151.972 521.281 152.429 520.824C152.885 519.911 152.885 519.454 152.429 518.541C151.972 518.084 151.972 517.627 151.515 517.627C151.059 517.627 150.145 517.627 150.145 518.084V518.541Z" fill="#0EDBFF"/>
<path fill-rule="evenodd" clip-rule="evenodd" d="M153.799 541.374C153.799 541.831 152.429 544.571 153.799 543.657C154.713 543.201 154.256 541.831 153.799 541.374C153.799 541.374 153.799 541.831 153.799 541.374Z" fill="#0EDBFF"/>
<path fill-rule="evenodd" clip-rule="evenodd" d="M164.759 521.28C165.215 521.737 165.672 522.193 165.672 523.107C164.759 523.107 164.759 522.65 164.759 521.737C164.759 520.823 165.216 521.28 165.672 520.367C165.672 520.367 165.672 520.367 166.129 520.367L164.759 521.28Z" fill="#0EDBFF"/>
<path fill-rule="evenodd" clip-rule="evenodd" d="M157.909 492.967C159.736 492.967 161.106 493.424 162.932 494.337C162.476 494.794 162.476 495.707 162.476 496.164C162.019 497.077 161.106 497.991 160.649 498.447C159.279 499.361 156.996 499.817 155.626 498.904C151.059 497.077 157.909 491.597 159.736 493.881L157.909 492.967Z" fill="#0EDBFF"/>
<path fill-rule="evenodd" clip-rule="evenodd" d="M444.697 134.025C446.067 134.938 447.893 135.851 449.263 137.221C450.633 139.048 452.003 140.418 452.917 142.245C453.373 143.158 454.743 145.441 452.917 145.441C451.09 145.898 447.437 143.158 445.61 141.788C442.87 139.961 440.587 138.591 438.76 135.851C437.847 134.481 436.477 132.198 437.39 130.828C438.303 129.458 439.217 129.458 440.587 129.458C441.957 129.458 442.87 129.915 444.24 130.828C444.697 131.285 447.437 134.025 446.523 134.481L444.697 134.025Z" fill="#0EDBFF"/>
<path fill-rule="evenodd" clip-rule="evenodd" d="M464.79 306.646C463.877 307.103 458.397 310.299 461.137 311.669C462.507 312.583 465.704 312.126 467.074 311.669C468.444 311.213 469.814 310.299 468.9 308.929C467.074 305.733 462.964 307.559 460.68 308.929L464.79 306.646Z" fill="#0EDBFF"/>
<path fill-rule="evenodd" clip-rule="evenodd" d="M505.891 118.955C504.064 120.325 489.451 128.088 496.301 131.742C499.954 133.568 507.261 133.112 510.914 131.285C514.111 129.915 517.764 127.632 515.481 123.978C511.371 116.215 500.867 120.782 495.387 123.978L505.891 118.955Z" fill="#0EDBFF"/>
<path fill-rule="evenodd" clip-rule="evenodd" d="M165.216 445.473C165.672 448.67 166.586 452.323 169.326 454.607C172.522 456.89 175.719 455.977 178.916 454.15C181.199 452.78 183.026 451.41 185.309 450.04C186.679 449.127 187.593 449.127 187.593 447.3C187.593 445.473 185.766 442.733 184.853 441.363C183.483 439.537 180.743 437.71 178.916 436.797C174.349 434.97 165.673 436.797 165.673 442.733L165.216 445.473Z" fill="#0EDBFF"/>
<path fill-rule="evenodd" clip-rule="evenodd" d="M467.53 452.324C467.987 454.607 468.444 457.347 470.27 458.717C472.554 460.544 474.837 459.631 477.12 458.261C478.49 457.347 480.317 456.434 481.687 455.521C482.6 455.064 483.514 455.064 483.514 453.694C483.514 452.324 482.144 450.497 481.687 449.584C480.774 448.214 478.947 446.844 477.577 446.387C474.38 445.017 468.444 446.387 468.444 450.497L467.53 452.324Z" fill="#0EDBFF"/>
<path fill-rule="evenodd" clip-rule="evenodd" d="M415.926 109.364C415.926 109.364 425.972 151.378 453.829 167.361C488.993 187.455 513.653 180.605 513.653 180.605C513.653 180.605 482.143 179.691 452.916 159.598C428.713 142.701 415.926 109.364 415.926 109.364Z" fill="url(#paint21_linear_17416_2)"/>
<path opacity="0.2" fill-rule="evenodd" clip-rule="evenodd" d="M349.707 434.512L368.43 407.112C368.43 407.112 392.634 475.613 454.741 497.076L441.041 505.753C441.498 505.753 377.564 487.486 349.707 434.512Z" fill="black"/>
<path opacity="0.3" fill-rule="evenodd" clip-rule="evenodd" d="M385.327 129.915C385.327 129.915 475.291 220.336 540.138 260.522C540.138 260.522 533.745 235.862 516.391 213.029C516.391 213.485 462.048 195.675 385.327 129.915Z" fill="black"/>
</g>
<defs>
<filter id="filter0_b_17416_2" x="-6.4704" y="304.301" width="666.234" height="376.359" filterUnits="userSpaceOnUse" color-interpolation-filters="sRGB">
<feFlood flood-opacity="0" result="BackgroundImageFix"/>
<feGaussianBlur in="BackgroundImageFix" stdDeviation="24"/>
<feComposite in2="SourceAlpha" operator="in" result="effect1_backgroundBlur_17416_2"/>
<feBlend mode="normal" in="SourceGraphic" in2="effect1_backgroundBlur_17416_2" result="shape"/>
</filter>
<filter id="filter1_d_17416_2" x="0" y="0" width="701.324" height="767.331" filterUnits="userSpaceOnUse" color-interpolation-filters="sRGB">
<feFlood flood-opacity="0" result="BackgroundImageFix"/>
<feColorMatrix in="SourceAlpha" type="matrix" values="0 0 0 0 0 0 0 0 0 0 0 0 0 0 0 0 0 0 127 0" result="hardAlpha"/>
<feOffset dy="80"/>
<feGaussianBlur stdDeviation="60"/>
<feComposite in2="hardAlpha" operator="out"/>
<feColorMatrix type="matrix" values="0 0 0 0 0 0 0 0 0 0 0 0 0 0 0 0 0 0 0.25 0"/>
<feBlend mode="normal" in2="BackgroundImageFix" result="effect1_dropShadow_17416_2"/>
<feBlend mode="normal" in="SourceGraphic" in2="effect1_dropShadow_17416_2" result="shape"/>
</filter>
<linearGradient id="paint0_linear_17416_2" x1="192.233" y1="216.895" x2="192.233" y2="141.968" gradientUnits="userSpaceOnUse">
<stop stop-color="#9A00B3"/>
<stop offset="1" stop-color="#7F72FF"/>
</linearGradient>
<linearGradient id="paint1_linear_17416_2" x1="175.652" y1="220.69" x2="203.805" y2="134.74" gradientUnits="userSpaceOnUse">
<stop stop-color="#5B008B"/>
<stop offset="1" stop-color="#8E00FF"/>
</linearGradient>
<radialGradient id="paint2_radial_17416_2" cx="0" cy="0" r="1" gradientUnits="userSpaceOnUse" gradientTransform="translate(201.96 231.779) scale(347.532 347.532)">
<stop offset="0.00558659" stop-color="#60DBFF"/>
<stop offset="0.0937306" stop-color="#60D5FF"/>
<stop offset="0.211" stop-color="#5FC4FF"/>
<stop offset="0.3446" stop-color="#5DA9FF"/>
<stop offset="0.4903" stop-color="#5A82FF"/>
<stop offset="0.6442" stop-color="#5751FF"/>
<stop offset="0.6844" stop-color="#5643FF"/>
<stop offset="0.7432" stop-color="#563DF8"/>
<stop offset="0.8282" stop-color="#552EE5"/>
<stop offset="0.9287" stop-color="#5315C6"/>
<stop offset="1" stop-color="#5200AB"/>
</radialGradient>
<linearGradient id="paint3_linear_17416_2" x1="119.597" y1="273.619" x2="430.816" y2="273.619" gradientUnits="userSpaceOnUse">
<stop offset="0.0111732" stop-color="#81E0FF"/>
<stop offset="0.3224" stop-color="#82DDFF"/>
<stop offset="0.5506" stop-color="#86D4FF"/>
<stop offset="0.7523" stop-color="#8BC4FF"/>
<stop offset="0.9375" stop-color="#94ADFF"/>
<stop offset="1" stop-color="#97A4FF"/>
</linearGradient>
<linearGradient id="paint4_linear_17416_2" x1="121.576" y1="212.381" x2="393.663" y2="212.381" gradientUnits="userSpaceOnUse">
<stop stop-color="#B8C2FF"/>
<stop offset="1" stop-color="#7D72B3"/>
</linearGradient>
<linearGradient id="paint5_linear_17416_2" x1="165.73" y1="414.907" x2="552.301" y2="414.907" gradientUnits="userSpaceOnUse">
<stop stop-color="#B8C2FF"/>
<stop offset="1" stop-color="#7D72B3"/>
</linearGradient>
<linearGradient id="paint6_linear_17416_2" x1="142.899" y1="334.948" x2="528.694" y2="334.948" gradientUnits="userSpaceOnUse">
<stop stop-color="#B8C2FF"/>
<stop offset="1" stop-color="#7D72B3"/>
</linearGradient>
<linearGradient id="paint7_linear_17416_2" x1="119.607" y1="281.035" x2="498.825" y2="281.035" gradientUnits="userSpaceOnUse">
<stop stop-color="#B8C2FF"/>
<stop offset="1" stop-color="#7D72B3"/>
</linearGradient>
<linearGradient id="paint8_linear_17416_2" x1="401.326" y1="255.306" x2="406.531" y2="255.306" gradientUnits="userSpaceOnUse">
<stop stop-color="#E8DDFF"/>
<stop offset="1" stop-color="#AA8AD8"/>
</linearGradient>
<linearGradient id="paint9_linear_17416_2" x1="357.438" y1="364.272" x2="375.948" y2="307.764" gradientUnits="userSpaceOnUse">
<stop stop-color="#5B008B"/>
<stop offset="1" stop-color="#8E00FF"/>
</linearGradient>
<linearGradient id="paint10_linear_17416_2" x1="133.172" y1="345.968" x2="134.252" y2="345.968" gradientUnits="userSpaceOnUse">
<stop stop-color="#E8DDFF"/>
<stop offset="1" stop-color="#AA8AD8"/>
</linearGradient>
<linearGradient id="paint11_linear_17416_2" x1="377.425" y1="159.516" x2="516.279" y2="159.516" gradientUnits="userSpaceOnUse">
<stop stop-color="#7F72FF"/>
<stop offset="1" stop-color="#9A00B3"/>
</linearGradient>
<linearGradient id="paint12_linear_17416_2" x1="408.967" y1="492.839" x2="479.402" y2="277.812" gradientUnits="userSpaceOnUse">
<stop stop-color="#280077"/>
<stop offset="1" stop-color="#812CFF"/>
</linearGradient>
<linearGradient id="paint13_linear_17416_2" x1="429.13" y1="488.465" x2="496.321" y2="283.353" gradientUnits="userSpaceOnUse">
<stop stop-color="#7A00B3"/>
<stop offset="1" stop-color="#B136FF"/>
</linearGradient>
<linearGradient id="paint14_linear_17416_2" x1="452.275" y1="429.624" x2="452.275" y2="281.052" gradientUnits="userSpaceOnUse">
<stop stop-color="#8E00B3"/>
<stop offset="1" stop-color="#E05CFF"/>
</linearGradient>
<linearGradient id="paint15_linear_17416_2" x1="189.555" y1="490.568" x2="218.649" y2="401.746" gradientUnits="userSpaceOnUse">
<stop stop-color="#280077"/>
<stop offset="1" stop-color="#812CFF"/>
</linearGradient>
<linearGradient id="paint16_linear_17416_2" x1="367.449" y1="567.568" x2="367.449" y2="529.091" gradientUnits="userSpaceOnUse">
<stop stop-color="#7A00B3"/>
<stop offset="0.9162" stop-color="#7006FC"/>
<stop offset="1" stop-color="#7006F9"/>
</linearGradient>
<linearGradient id="paint17_linear_17416_2" x1="191.301" y1="504.761" x2="191.301" y2="394.166" gradientUnits="userSpaceOnUse">
<stop stop-color="#7A00B3"/>
<stop offset="1" stop-color="#B136FF"/>
</linearGradient>
<linearGradient id="paint18_linear_17416_2" x1="197.095" y1="504.719" x2="197.095" y2="394.168" gradientUnits="userSpaceOnUse">
<stop stop-color="#8E00B3"/>
<stop offset="1" stop-color="#E05CFF"/>
</linearGradient>
<linearGradient id="paint19_linear_17416_2" x1="363.111" y1="354.661" x2="378.421" y2="307.923" gradientUnits="userSpaceOnUse">
<stop stop-color="#A400CA"/>
<stop offset="1" stop-color="#B136FF"/>
</linearGradient>
<linearGradient id="paint20_linear_17416_2" x1="439.858" y1="188.349" x2="461.953" y2="120.897" gradientUnits="userSpaceOnUse">
<stop stop-color="#5B008B"/>
<stop offset="1" stop-color="#8E00FF"/>
</linearGradient>
<linearGradient id="paint21_linear_17416_2" x1="464.977" y1="181.748" x2="464.977" y2="109.413" gradientUnits="userSpaceOnUse">
<stop stop-color="#B000D9"/>
<stop offset="1" stop-color="#E05CFF"/>
</linearGradient>
</defs>
</svg>
