<svg width="156" height="156" viewBox="0 0 156 156" fill="none" xmlns="http://www.w3.org/2000/svg">
<path d="M155.93 78.145C155.93 120.947 121.232 155.645 78.4301 155.645C35.628 155.645 0.930115 120.947 0.930115 78.145C0.930115 35.343 35.628 0.64502 78.4301 0.64502C121.232 0.64502 155.93 35.343 155.93 78.145Z" fill="white" fill-opacity="0.28"/>
<path d="M21.852 109.534L23.8585 108.465L22.4228 105.77L23.6955 105.092L25.1312 107.787L27.2524 106.657L25.6334 103.618L26.9405 102.922L29.4148 107.565L21.4002 111.836L18.9259 107.192L20.233 106.496L21.852 109.534Z" fill="white"/>
<path d="M23.6818 94.0333L21.3439 96.8089L24.7863 97.6082L25.3922 99.5695L20.1792 98.1885L16.7395 102.284L16.122 100.285L18.4476 97.5133L15.0214 96.7225L14.4155 94.7613L19.6123 96.1336L23.0644 92.0348L23.6818 94.0333Z" fill="white"/>
<path d="M15.4206 82.0026C15.9033 81.9556 16.3672 82.0279 16.8123 82.2195C17.2565 82.4025 17.6319 82.7271 17.9383 83.1933C18.2439 83.6509 18.4328 84.2504 18.505 84.9917L18.6523 86.5046L22.1177 86.1673L22.294 87.9776L13.2683 88.8562L12.9448 85.533C12.8768 84.8348 12.9396 84.2282 13.1331 83.7133C13.3267 83.1985 13.6229 82.7998 14.0218 82.5173C14.4199 82.2262 14.8861 82.0546 15.4206 82.0026ZM17.0514 85.2116C17.0027 84.7116 16.8546 84.3518 16.6069 84.1322C16.3507 83.9135 16.0157 83.8243 15.6019 83.8646C14.7226 83.9502 14.3308 84.4844 14.4264 85.4671L14.5662 86.9024L17.1911 86.6469L17.0514 85.2116Z" fill="white"/>
<path d="M20.4099 75.3681L20.6368 72.3886L22.0747 72.4981L21.7097 77.2912L12.6676 76.6027L12.8057 74.7891L20.4099 75.3681Z" fill="white"/>
<path d="M23.7289 64.9127C23.5058 65.7316 23.1088 66.4314 22.5377 67.0119C21.9666 67.5925 21.288 67.9911 20.5019 68.2079C19.7073 68.4224 18.8797 68.4124 18.019 68.1779C17.1666 67.9457 16.4565 67.5369 15.8889 66.9514C15.3129 66.3636 14.926 65.6747 14.7283 64.8848C14.5305 64.0948 14.5432 63.2903 14.7663 62.4714C14.9916 61.644 15.3887 60.9443 15.9575 60.3721C16.5285 59.7915 17.2102 59.3982 18.0024 59.1921C18.7886 58.9754 19.6079 58.9831 20.4603 59.2153C21.321 59.4497 22.0394 59.8608 22.6154 60.4486C23.1853 61.0258 23.5691 61.7093 23.7669 62.4993C23.9647 63.2892 23.952 64.0937 23.7289 64.9127ZM22.162 64.4859C22.3054 63.9594 22.3148 63.4637 22.19 62.9989C22.0569 62.5317 21.7997 62.125 21.4182 61.7787C21.0368 61.4325 20.5536 61.1797 19.9686 61.0203C19.3836 60.861 18.8431 60.8349 18.3471 60.9422C17.8427 61.0472 17.4189 61.2684 17.0757 61.6058C16.7324 61.9432 16.4891 62.3751 16.3457 62.9016C16.2023 63.4281 16.1918 63.9279 16.3143 64.4011C16.439 64.866 16.6921 65.2716 17.0735 65.6178C17.4466 65.9618 17.9257 66.2135 18.5106 66.3728C19.0956 66.5322 19.6403 66.5594 20.1447 66.4544C20.649 66.3494 21.077 66.1293 21.4286 65.7942C21.7741 65.4485 22.0186 65.0124 22.162 64.4859Z" fill="white"/>
<path d="M28.4927 52.8208L24.4348 52.9759L24.0412 53.7377L27.1805 55.36L26.3455 56.9759L18.2893 52.8127L19.852 49.7887C20.1741 49.1654 20.56 48.6922 21.0098 48.3689C21.4519 48.0416 21.9171 47.8677 22.4055 47.8471C22.8902 47.8148 23.3633 47.918 23.825 48.1566C24.3559 48.4309 24.7573 48.8333 25.0291 49.3638C25.2933 49.8903 25.3491 50.4992 25.1966 51.1906L29.459 50.951L28.4927 52.8208ZM22.8293 53.1114L23.5271 51.761C23.7538 51.3224 23.8189 50.9417 23.7225 50.6189C23.6183 50.2921 23.3778 50.0313 23.0007 49.8365C22.6314 49.6456 22.291 49.6062 21.9796 49.7183C21.6605 49.8264 21.3877 50.0997 21.161 50.5383L20.4632 51.8887L22.8293 53.1114Z" fill="white"/>
<path d="M26.7423 41.5863L28.5405 42.9775L30.4087 40.5627L31.5493 41.4451L29.6811 43.8599L31.5821 45.3306L33.6888 42.6075L34.8603 43.5138L31.6406 47.6755L24.4579 42.1186L27.6775 37.9569L28.849 38.8632L26.7423 41.5863Z" fill="white"/>
<path d="M45.2104 32.073L42.2643 34.1623L42.7764 35.9175L41.2186 37.0223L38.625 27.7283L40.3524 26.5033L48.2658 32.0244L46.6974 33.1367L45.2104 32.073ZM43.9659 31.1717L40.701 28.8363L41.8252 32.6898L43.9659 31.1717Z" fill="white"/>
<path d="M58.9537 27.0651L57.2766 27.769L51.0706 23.6248L53.4791 29.363L51.802 30.0669L48.2873 21.6933L49.9644 20.9893L56.1754 25.1455L53.7619 19.3954L55.439 18.6915L58.9537 27.0651Z" fill="white"/>
<path d="M64.646 16.3123C65.5837 16.1437 66.4393 16.1791 67.2128 16.4184C67.9947 16.6562 68.6388 17.0815 69.1451 17.6945C69.6583 18.2975 69.9954 19.0465 70.1564 19.9415C70.3173 20.8366 70.2623 21.6561 69.9912 22.4001C69.7272 23.134 69.2701 23.7486 68.62 24.2439C67.9784 24.7377 67.1887 25.0689 66.251 25.2375L63.131 25.7986L61.5261 16.8734L64.646 16.3123ZM65.9134 23.7274C66.8511 23.5587 67.5297 23.1727 67.9492 22.5693C68.3687 21.9658 68.4949 21.1995 68.3279 20.2703C68.1608 19.3412 67.7747 18.6626 67.1697 18.2345C66.5632 17.798 65.7911 17.664 64.8534 17.8327L63.5875 18.0603L64.6476 23.955L65.9134 23.7274Z" fill="white"/>
<path d="M83.4046 16.9582L83.138 19.2161L86.17 19.5741L86.0009 21.0062L82.9689 20.6482L82.6871 23.0351L86.1062 23.4388L85.9325 24.9097L80.7071 24.2927L81.7719 15.274L86.9974 15.891L86.8237 17.3619L83.4046 16.9582Z" fill="white"/>
<path d="M97.3033 28.0228L95.572 27.465L93.5604 20.2788L91.652 26.2021L89.9208 25.6443L92.7057 17.0005L94.4369 17.5583L96.4445 24.7569L98.3569 18.8212L100.088 19.379L97.3033 28.0228Z" fill="white"/>
<path d="M111.105 24.9754L110.383 26.2536L108.279 25.0649L104.54 31.6821L102.957 30.7873L106.695 24.1702L104.591 22.9815L105.313 21.7033L111.105 24.9754Z" fill="white"/>
<path d="M116.226 30.5238L114.776 32.2751L117.128 34.2221L116.208 35.3329L113.857 33.3859L112.324 35.2372L114.976 37.4328L114.031 38.5736L109.978 35.218L115.77 28.2231L119.823 31.5786L118.878 32.7194L116.226 30.5238Z" fill="white"/>
<path d="M119.953 44.972L121.375 41.1684L120.825 40.5113L118.117 42.7817L116.948 41.388L123.897 35.5616L126.084 38.1699C126.535 38.7075 126.822 39.2462 126.947 39.7858C127.078 40.32 127.059 40.8163 126.89 41.2748C126.733 41.7344 126.455 42.1311 126.057 42.465C125.599 42.849 125.073 43.0641 124.479 43.1102C123.891 43.1508 123.308 42.9674 122.729 42.5599L121.305 46.5848L119.953 44.972ZM121.87 39.6348L122.846 40.7996C123.164 41.1779 123.49 41.3849 123.825 41.4205C124.166 41.4505 124.5 41.3292 124.825 41.0565C125.144 40.7894 125.311 40.4905 125.328 40.16C125.351 39.8239 125.205 39.4667 124.887 39.0884L123.911 37.9236L121.87 39.6348Z" fill="white"/>
<path d="M137.017 56.8003L135.669 57.3808L134.713 55.1613L127.733 58.1665L127.013 56.4959L133.994 53.4906L133.039 51.2711L134.387 50.6906L137.017 56.8003Z" fill="white"/>
<path d="M140.407 69.7787L131.527 71.6152L131.158 69.8341L134.937 69.0526L134.15 65.2486L130.372 66.03L130.003 64.2488L138.884 62.4123L139.252 64.1935L135.601 64.9486L136.387 68.7527L140.039 67.9976L140.407 69.7787Z" fill="white"/>
<path d="M139.546 77.9367L137.273 77.9589L137.303 81.0118L135.861 81.0259L135.831 77.973L133.428 77.9965L133.461 81.4392L131.98 81.4537L131.929 76.1922L141.01 76.1034L141.061 81.3649L139.58 81.3794L139.546 77.9367Z" fill="white"/>
<path d="M136.608 103.212L127.963 100.474L128.512 98.7396L134.135 100.521L129.246 96.4236L129.662 95.1107L136.022 94.5635L130.4 92.7823L130.949 91.0483L139.594 93.7869L138.97 95.7562L131.671 96.4694L137.228 101.255L136.608 103.212Z" fill="white"/>
<path d="M131.597 109.932L129.626 108.798L128.104 111.444L126.854 110.725L128.376 108.079L126.293 106.88L124.576 109.865L123.292 109.126L125.916 104.565L133.788 109.094L131.164 113.655L129.88 112.916L131.597 109.932Z" fill="white"/>
<path d="M123.968 123.028L122.844 122.083L124.4 120.233L118.584 115.341L119.754 113.949L125.571 118.841L127.126 116.992L128.25 117.937L123.968 123.028Z" fill="white"/>
<path d="M110.875 124.9L113.708 122.661L113.105 120.935L114.604 119.75L117.677 128.897L116.015 130.21L107.826 125.108L109.334 123.915L110.875 124.9ZM112.164 125.736L115.546 127.898L114.223 124.108L112.164 125.736Z" fill="white"/>
<path d="M101.04 138.953L100.055 129.344L102.04 128.376L109.004 135.07L107.252 135.924L101.85 130.536L102.78 138.105L101.04 138.953Z" fill="white"/>
<path d="M93.9481 139.689L93.3554 137.494L90.4079 138.29L90.032 136.898L92.9795 136.102L92.3531 133.781L89.0292 134.679L88.6432 133.249L93.723 131.878L96.0901 140.645L91.0103 142.016L90.6242 140.587L93.9481 139.689Z" fill="white"/>
<path d="M80.0002 134.389L82.2844 137.747L83.1389 137.677L82.8488 134.155L84.6615 134.005L85.4061 143.043L82.0138 143.323C81.3146 143.38 80.7087 143.304 80.196 143.094C79.6841 142.893 79.2898 142.591 79.0133 142.188C78.7288 141.794 78.5652 141.339 78.5226 140.821C78.4735 140.225 78.6017 139.671 78.9071 139.159C79.2133 138.656 79.6999 138.286 80.3669 138.048L77.9026 134.562L80.0002 134.389ZM83.251 139.036L81.736 139.161C81.244 139.202 80.8868 139.348 80.6643 139.601C80.4425 139.863 80.349 140.205 80.3839 140.628C80.418 141.042 80.5652 141.352 80.8254 141.556C81.0863 141.77 81.4627 141.856 81.9548 141.815L83.4697 141.691L83.251 139.036Z" fill="white"/>
<path d="M70.8662 134.048C71.4945 134.118 72.0505 134.29 72.5341 134.562C73.0091 134.833 73.3702 135.188 73.6174 135.625C73.8646 136.063 73.9615 136.557 73.9082 137.109L71.9716 136.891C71.9874 136.518 71.8912 136.211 71.683 135.97C71.4662 135.728 71.1512 135.583 70.738 135.537C70.3163 135.489 69.9738 135.551 69.7105 135.722C69.4463 135.902 69.2958 136.155 69.2591 136.482C69.2291 136.749 69.2862 136.977 69.4304 137.168C69.5745 137.358 69.7661 137.515 70.0051 137.638C70.2345 137.768 70.5576 137.918 70.9744 138.087C71.5403 138.325 71.9991 138.546 72.3508 138.751C72.693 138.964 72.9786 139.253 73.2077 139.619C73.4272 139.992 73.505 140.463 73.4411 141.031C73.3812 141.565 73.1955 142.014 72.8842 142.38C72.5728 142.746 72.1646 143.005 71.6594 143.158C71.1532 143.319 70.5902 143.365 69.9705 143.295C69.041 143.19 68.3135 142.878 67.7881 142.357C67.2531 141.843 67.001 141.179 67.0317 140.363L69.0199 140.586C69.0023 140.898 69.1072 141.167 69.3345 141.393C69.5523 141.627 69.8635 141.766 70.268 141.812C70.6209 141.851 70.9151 141.793 71.1506 141.636C71.3774 141.479 71.5102 141.228 71.5489 140.884C71.576 140.643 71.5213 140.432 71.3848 140.251C71.2386 140.077 71.0552 139.926 70.8344 139.797C70.6041 139.675 70.281 139.525 69.8651 139.348C69.2992 139.11 68.8409 138.884 68.4901 138.67C68.1394 138.457 67.8499 138.163 67.6218 137.788C67.3937 137.414 67.3111 136.947 67.374 136.388C67.4282 135.906 67.6033 135.472 67.8993 135.087C68.1954 134.702 68.5984 134.412 69.1085 134.216C69.6176 134.029 70.2035 133.973 70.8662 134.048Z" fill="white"/>
<path d="M59.4505 139.611L60.1081 137.435L57.1855 136.552L57.6027 135.171L60.5252 136.054L61.2204 133.754L57.9248 132.758L58.3532 131.34L63.39 132.862L60.7632 141.555L55.7264 140.033L56.1548 138.615L59.4505 139.611Z" fill="white"/>
<path d="M78.9301 71.645C78.6649 71.645 78.4105 71.7504 78.223 71.9379C78.0355 72.1254 77.9301 72.3798 77.9301 72.645V76.645C77.9301 76.9102 78.0355 77.1646 78.223 77.3521C78.4105 77.5397 78.6649 77.645 78.9301 77.645C79.1953 77.645 79.4497 77.5397 79.6372 77.3521C79.8248 77.1646 79.9301 76.9102 79.9301 76.645V72.645C79.9301 72.3798 79.8248 72.1254 79.6372 71.9379C79.4497 71.7504 79.1953 71.645 78.9301 71.645Z" fill="white"/>
<path fill-rule="evenodd" clip-rule="evenodd" d="M70.9301 74.645C70.9301 72.5233 71.773 70.4885 73.2733 68.9882C74.7736 67.4879 76.8084 66.645 78.9301 66.645C81.0518 66.645 83.0867 67.4879 84.587 68.9882C86.0873 70.4885 86.9301 72.5233 86.9301 74.645V82.645C86.9301 84.7668 86.0873 86.8016 84.587 88.3019C83.0867 89.8022 81.0518 90.645 78.9301 90.645C76.8084 90.645 74.7736 89.8022 73.2733 88.3019C71.773 86.8016 70.9301 84.7668 70.9301 82.645V74.645ZM84.9301 74.645V82.645C84.9301 84.2363 84.298 85.7624 83.1728 86.8877C82.0475 88.0129 80.5214 88.645 78.9301 88.645C77.3388 88.645 75.8127 88.0129 74.6875 86.8877C73.5623 85.7624 72.9301 84.2363 72.9301 82.645V74.645C72.9301 73.0537 73.5623 71.5276 74.6875 70.4024C75.8127 69.2772 77.3388 68.645 78.9301 68.645C80.5214 68.645 82.0475 69.2772 83.1728 70.4024C84.298 71.5276 84.9301 73.0537 84.9301 74.645Z" fill="white"/>
</svg>
