<svg width="702" height="702" viewBox="0 0 702 702" fill="none" xmlns="http://www.w3.org/2000/svg">
<g filter="url(#filter0_b_17416_3)">
<path d="M652.875 398.982C657.9 489.249 588.796 566.499 498.529 571.523L219.578 587.05C150.142 590.914 90.7189 537.758 86.8541 468.321C81.0568 364.167 160.791 275.033 264.946 269.235L493.606 256.508C576.93 251.87 648.237 315.658 652.875 398.982Z" fill="white" fill-opacity="0.08"/>
</g>
<g filter="url(#filter1_d_17416_3)">
<path fill-rule="evenodd" clip-rule="evenodd" d="M581.319 270.902C581.319 292.824 578.397 314.745 572.551 334.718C560.86 375.637 537.964 411.685 507.762 439.939C486.327 459.912 460.509 475.987 432.255 486.705C406.924 496.447 379.157 501.806 350.416 501.806C346.519 501.806 342.135 501.806 338.238 501.319C332.392 500.831 326.059 500.344 320.213 499.857C275.884 494.012 234.964 475.5 202.326 447.734C190.148 437.504 178.944 425.812 168.714 413.147C161.407 403.404 154.587 393.661 148.741 382.944C147.28 380.508 145.818 377.586 144.357 375.15C144.357 375.15 144.357 375.15 144.357 374.663C142.895 371.74 141.434 369.304 140.46 366.382C136.563 357.613 133.153 348.357 130.23 339.102C128.281 332.282 126.333 325.462 124.871 318.642C123.897 313.771 122.923 308.899 122.436 303.541C120.974 292.824 120 282.107 120 270.902C120 264.57 120 258.237 120.974 251.904C121.461 248.007 121.949 244.11 122.436 240.213C125.358 217.317 131.691 195.883 140.947 175.911C145.331 166.168 150.69 156.425 156.535 147.657C166.278 132.555 177.482 118.428 190.635 105.763C232.042 65.3304 289.037 40.4863 351.39 40.4863C353.826 40.4863 356.262 40.4863 358.697 40.4863C361.133 40.4863 364.056 40.4863 366.492 40.9735C379.644 41.9477 392.797 43.8963 405.463 46.8191C412.77 48.7677 420.077 50.7162 426.897 53.1519C431.768 54.6133 436.152 56.5619 441.024 58.5104C444.434 59.9718 447.844 61.4333 451.254 62.8947C451.741 63.3818 452.228 63.3818 453.202 63.869C475.611 74.586 496.07 89.2001 513.607 106.737C516.043 109.173 518.479 111.608 520.914 114.531C522.376 116.48 524.324 117.941 525.786 119.89C528.708 122.813 531.144 126.223 533.58 129.145C542.836 140.837 550.63 153.502 557.45 166.655C565.244 182.243 571.577 198.806 575.961 215.856C578.884 232.906 581.319 251.417 581.319 270.902Z" fill="url(#paint0_radial_17416_3)"/>
<path fill-rule="evenodd" clip-rule="evenodd" d="M451.741 63.3825C450.766 63.3825 450.279 63.3825 449.305 63.8696C446.869 64.3568 444.434 63.8696 441.998 63.3825C440.049 62.8953 439.075 61.9211 436.64 61.9211C433.717 61.4339 431.281 60.4597 428.358 59.9725C425.435 59.4854 423 58.5111 420.077 57.5368C417.641 56.5626 416.667 57.0497 414.718 57.5368C412.77 58.024 411.308 57.0497 409.36 56.5625C407.411 55.5883 404.975 55.5883 403.027 55.1011C397.181 54.1269 391.336 52.1783 385.49 50.7169C382.08 49.7426 378.67 49.7426 374.773 49.7426C371.85 49.7426 369.414 50.7169 366.492 50.7169C364.543 50.7169 363.082 50.2298 361.133 50.2298C359.185 49.7426 357.236 50.2298 355.287 50.2298C352.365 49.7426 350.903 49.2555 347.98 50.2298C345.545 50.7169 344.083 50.7169 341.648 51.204C339.212 51.204 336.289 52.1783 333.853 52.6655C329.469 53.6397 324.598 54.614 320.213 54.614C317.291 54.614 313.394 53.6397 310.958 54.614C309.496 55.1011 308.522 57.0497 307.061 58.024C304.625 60.4596 302.189 62.4082 300.241 64.8439C298.292 67.2796 296.344 70.2024 296.344 73.6124C296.344 76.5352 297.805 79.9452 299.267 82.3808C300.728 85.3037 301.215 87.7394 298.292 89.6879C294.882 92.1236 290.498 94.0722 286.601 95.5336C283.678 96.5078 281.242 96.995 279.294 95.0464C278.32 94.5593 277.833 93.0979 276.858 92.1236C275.884 91.6365 274.423 92.1236 273.448 92.6107C270.526 93.585 267.603 94.5593 264.68 95.0464C262.731 95.5336 261.27 96.5078 259.321 96.5078C257.373 96.995 255.911 95.5336 253.476 96.0207C250.553 96.5078 247.143 97.9693 244.22 97.9693C241.784 97.9693 238.862 96.995 236.913 96.0207C235.939 95.5336 235.452 94.5593 233.99 95.0464C233.016 95.0464 231.554 96.5078 231.067 97.4821C230.093 98.4564 230.093 99.9178 229.119 100.892C228.145 102.354 227.657 103.328 226.683 104.789C225.222 107.225 223.76 109.661 222.299 112.096C221.325 113.558 220.35 115.993 218.889 117.455C218.402 118.429 216.94 118.916 215.966 119.403C213.53 120.865 211.095 122.813 208.659 124.275C204.275 127.685 199.891 131.582 195.506 134.992C192.096 137.427 187.225 138.889 183.328 140.837C180.892 141.812 178.457 142.786 176.021 143.76C175.047 144.247 173.585 144.247 173.098 145.222C172.124 146.196 171.637 147.17 171.149 148.632C169.201 151.067 166.765 153.99 165.304 156.913C164.329 158.861 163.842 160.323 162.868 162.271C161.894 164.707 160.432 167.143 159.945 170.066C157.997 175.424 157.997 181.27 155.561 186.628C154.587 189.551 152.638 192.474 151.177 195.397C148.741 200.268 148.254 206.114 147.767 211.472C147.28 214.395 147.767 218.292 148.254 221.215C148.741 224.625 148.741 228.035 148.741 231.445C148.741 234.855 146.305 238.752 144.357 241.188C142.408 243.623 138.998 244.598 136.563 247.033C134.614 248.982 132.178 250.93 131.204 253.853C130.717 254.828 131.204 256.289 131.204 257.75C130.717 260.673 129.743 263.109 129.743 266.032C129.256 269.442 129.256 272.852 129.256 276.749C129.256 278.697 129.256 280.159 129.256 282.107C129.256 284.056 129.743 285.517 130.23 286.979C130.23 287.953 130.23 289.414 130.23 290.389C130.23 291.85 131.204 293.311 131.204 294.286C132.178 297.696 132.665 300.619 133.153 304.029C133.64 306.951 135.101 309.874 135.588 312.797C137.05 316.694 137.537 320.591 138.511 324.975C138.998 327.898 138.998 331.308 139.485 334.231C139.973 336.667 140.46 339.102 140.46 341.538C140.46 345.435 139.485 348.845 139.485 352.742C139.485 359.075 141.921 365.408 143.383 371.741C143.87 373.689 144.357 375.151 144.844 377.099C128.768 345.922 120 310.361 120 272.852C120 227.061 133.153 184.68 156.048 149.119C165.791 134.017 176.995 119.89 190.148 107.712C231.554 67.2796 288.55 42.4355 350.903 42.4355C355.775 42.4355 361.133 42.4356 366.005 42.9227C396.207 42.4356 425.435 50.2297 451.741 63.3825Z" fill="url(#paint1_linear_17416_3)"/>
<path opacity="0.1" fill-rule="evenodd" clip-rule="evenodd" d="M365.032 379.048C365.032 379.048 386.466 410.712 415.207 436.53C443.948 462.348 447.846 479.885 447.846 479.885C447.846 479.885 501.918 457.477 540.402 403.892C578.886 350.794 365.032 379.048 365.032 379.048Z" fill="black" fill-opacity="0.5"/>
<path opacity="0.4" fill-rule="evenodd" clip-rule="evenodd" d="M404.003 46.3328C391.337 43.41 378.671 41.4614 365.032 40.4871C362.596 40.4871 359.673 40 357.237 40C362.596 42.9228 367.954 48.2814 368.929 54.127C370.877 63.8698 374.287 72.6382 375.749 81.8939C377.697 91.1495 377.21 102.841 372.826 111.122C370.39 116.481 366.98 120.865 362.596 125.249C359.673 128.172 356.75 130.12 354.802 134.018C352.853 137.915 350.417 141.325 347.982 144.735C344.572 150.093 340.675 155.452 336.291 160.323C334.829 162.272 333.368 163.246 331.906 165.194C330.445 167.63 329.47 170.066 327.522 172.014C323.138 176.399 316.805 179.321 311.446 181.27C304.139 184.193 297.807 187.116 290.987 191.013C281.244 196.371 272.963 202.704 261.758 203.191C257.861 203.191 253.964 202.704 250.067 203.191C245.196 203.678 240.812 205.627 236.427 206.601C232.53 207.575 228.146 208.063 224.249 209.037C217.429 210.011 212.07 212.447 205.738 213.908C197.456 215.857 188.688 215.37 179.919 216.831C172.125 217.805 165.792 218.78 157.998 216.831C146.307 213.908 139.974 208.55 142.41 195.884C143.871 187.603 143.384 181.27 139.487 175.424C130.231 195.397 123.898 217.318 120.976 239.727C126.334 242.162 132.667 243.136 138.025 243.624C155.075 245.572 173.586 237.778 189.175 231.932C196.969 229.009 205.25 224.625 214.019 223.651C223.275 222.677 231.069 223.651 240.324 221.702C271.501 213.908 302.191 203.191 330.445 186.628C342.136 179.809 347.007 170.066 355.289 160.323C362.109 151.555 370.39 144.735 378.671 137.428C386.953 130.121 394.26 123.301 399.131 113.558C404.49 103.328 408.874 91.6366 411.31 80.4324C413.745 67.7669 410.335 56.0755 404.003 46.3328ZM402.541 77.5096C402.054 79.9453 401.567 82.8681 401.08 85.3038C399.131 91.6366 395.234 97.9694 389.388 100.892C386.953 102.354 383.056 101.379 381.594 98.9437C380.62 97.4823 380.62 95.5337 380.62 94.0723C380.133 90.6623 379.646 87.7395 379.646 84.3296C379.646 76.5353 379.646 68.7411 378.671 60.9469C379.646 65.3312 378.672 54.127 385.491 51.2042C388.901 49.7428 393.773 51.2042 396.208 53.6399C399.131 57.0498 400.106 62.4083 401.08 66.3054C402.054 70.6897 403.028 73.6125 402.541 77.5096Z" fill="url(#paint2_linear_17416_3)" fill-opacity="0.5"/>
<path opacity="0.4" fill-rule="evenodd" clip-rule="evenodd" d="M368.928 446.272C368.441 446.272 367.467 446.759 366.98 446.759L371.364 447.246C371.364 446.759 370.39 446.272 368.928 446.272ZM368.928 446.272C368.441 446.272 367.467 446.759 366.98 446.759L371.364 447.246C371.364 446.759 370.39 446.272 368.928 446.272ZM574.5 214.881C574.5 220.727 572.552 227.06 572.552 232.905C572.552 241.187 571.091 247.52 569.142 255.314C567.681 260.672 564.758 264.569 563.296 269.928C561.348 275.774 558.425 281.132 555.502 286.491C549.656 297.208 543.324 308.412 540.888 320.59C538.452 331.794 537.965 341.05 532.607 351.28C527.248 361.023 519.454 369.304 513.608 379.047C511.173 383.431 509.224 383.431 504.84 386.354C500.456 389.764 496.071 394.635 491.687 398.045C482.431 405.352 473.663 410.711 461.972 415.095C454.665 418.018 447.845 419.966 440.05 420.941C435.179 421.915 430.308 420.941 425.436 421.915C417.642 423.376 410.335 425.325 402.541 427.761C390.362 431.658 377.697 434.093 365.518 437.99C356.75 440.426 348.469 442.375 339.7 443.836C334.342 444.81 329.957 447.733 324.599 446.759C319.24 445.785 313.882 443.836 308.523 441.888C301.703 439.939 295.858 439.452 288.551 439.452C278.808 439.452 267.117 440.913 256.887 438.965C245.682 437.016 234.965 433.606 223.761 431.658C216.941 430.196 212.07 427.273 205.737 424.838C199.892 421.915 194.046 421.428 187.713 419.479C181.38 417.531 175.048 414.608 168.715 413.146C178.458 425.812 189.662 437.503 202.327 447.733C234.966 475.5 275.398 494.011 320.215 499.857C326.06 500.344 331.906 501.318 338.239 501.318C351.391 498.396 364.057 494.498 377.21 490.601C399.131 483.781 418.129 470.629 440.05 464.296C448.332 461.86 455.639 459.425 462.946 455.527C468.792 452.605 474.637 452.117 479.996 449.682C500.456 440.913 515.557 421.428 524.812 401.942C528.71 393.174 532.607 383.431 540.401 376.611C543.324 373.688 547.221 371.74 549.656 368.33C552.579 364.92 554.528 361.023 557.451 357.126C562.322 350.793 566.706 343.973 571.09 337.64C571.578 336.666 572.065 336.179 572.552 335.204C578.398 314.745 581.32 293.311 581.32 271.389C581.32 251.417 578.885 232.905 574.5 214.881ZM362.596 447.733C363.57 447.246 364.544 446.272 365.518 445.785C366.493 445.298 367.954 445.785 368.928 446.272C370.877 445.785 372.338 445.785 373.8 446.759C374.774 447.246 376.235 448.22 376.723 449.195C377.21 450.169 376.723 450.656 375.748 451.63C374.774 452.605 374.287 452.605 372.826 452.605C370.39 453.092 367.954 453.579 365.031 453.092C363.57 453.092 361.134 452.605 360.16 451.63C360.16 449.682 361.621 448.708 362.596 447.733ZM377.697 477.936C376.235 479.884 374.774 481.833 372.826 482.807C370.877 484.269 368.928 484.756 367.467 486.217C362.596 488.653 357.724 491.576 352.853 493.037C350.904 493.524 348.469 493.524 346.52 493.524C344.084 494.011 341.162 494.011 338.726 494.011C335.803 494.011 332.393 494.498 329.47 494.986C326.547 494.986 323.137 495.473 320.215 495.473C314.856 495.96 310.472 494.986 305.6 493.037C301.216 491.576 296.832 489.14 292.935 486.704C290.012 484.756 287.576 482.32 285.628 479.884C283.192 477.936 281.731 475.5 280.269 472.577C279.782 471.603 279.295 470.629 279.782 469.167C279.782 468.68 280.269 468.193 280.269 468.193C281.244 467.706 282.218 466.732 282.705 466.732C284.166 465.757 286.115 465.757 288.064 465.27C292.448 464.783 296.832 465.27 301.216 465.757C303.652 465.757 306.088 466.244 308.523 465.757C311.933 465.27 315.343 464.296 318.266 463.322C326.06 461.373 333.855 459.425 341.649 458.937C349.443 457.963 358.211 456.989 366.006 458.45C368.928 458.937 372.826 459.912 375.261 461.373C377.21 462.835 378.671 464.783 379.645 466.732C381.107 470.629 380.133 474.526 377.697 477.936ZM439.076 457.963C437.615 459.425 435.666 460.399 433.718 461.86C431.282 463.809 428.846 464.783 426.411 466.244C424.462 467.706 422.026 468.68 420.078 469.654C417.642 470.629 415.694 471.603 413.258 473.064C410.822 474.039 408.386 475.013 405.951 475.987C404.002 476.474 402.054 477.449 400.105 476.961C398.644 476.474 396.695 475.987 395.721 475.013C393.772 473.064 394.26 471.116 394.747 470.142C394.747 468.68 394.26 466.244 394.747 464.296C395.234 463.322 396.208 461.86 396.695 460.886C398.644 456.989 401.567 454.553 404.489 451.63C406.925 449.195 409.848 447.246 413.258 445.785C417.155 444.323 422.026 443.836 425.923 443.349C430.308 442.862 438.102 442.375 440.538 447.733C441.999 451.143 441.512 454.553 439.076 457.963ZM371.851 446.759C371.364 446.759 370.39 446.272 369.415 445.785C368.928 445.785 367.954 446.272 367.467 446.272L371.851 446.759Z" fill="url(#paint3_linear_17416_3)" fill-opacity="0.5"/>
<path opacity="0.4" fill-rule="evenodd" clip-rule="evenodd" d="M555.991 165.681V166.655C555.503 172.988 553.068 177.372 550.632 183.218C548.683 188.089 546.735 191.986 544.299 196.37C540.402 203.677 538.454 210.497 535.531 218.779C530.659 230.957 528.711 244.11 521.404 255.314C515.071 265.544 513.122 277.722 508.251 288.439C502.405 300.618 493.15 308.899 483.407 317.668C479.023 321.565 475.126 326.436 471.228 330.82C466.844 335.205 463.922 341.05 458.563 344.947C447.846 352.742 435.667 359.561 424.95 367.843C418.618 372.714 414.233 379.534 406.926 383.431C400.106 387.815 392.312 390.738 385.492 394.635C379.16 398.533 372.827 402.43 366.007 405.352C358.213 408.275 351.88 407.301 343.599 407.788C334.83 408.275 325.574 410.711 317.293 413.634C310.473 416.069 304.627 418.505 297.32 416.069C292.449 414.608 288.552 411.198 283.68 410.224C271.989 407.788 259.324 410.224 247.632 409.737C238.377 409.25 228.634 407.301 219.378 405.352C210.61 403.891 203.303 397.558 195.022 395.123C184.304 392.2 172.126 394.635 162.383 390.738C157.999 389.277 154.102 385.867 150.692 383.431C149.718 382.944 149.231 382.457 148.256 381.97C146.795 379.534 145.333 376.611 143.872 374.176C146.308 375.15 148.743 376.124 151.179 377.586C164.332 383.918 180.895 382.944 195.022 385.38C211.097 388.303 227.173 392.2 243.248 394.148C250.068 395.123 256.401 394.635 263.221 394.148C272.476 393.174 281.732 393.174 290.988 391.713C306.576 388.79 322.164 381.483 338.24 383.431C341.163 383.918 344.573 385.38 347.496 385.38C351.88 385.38 355.29 381.483 358.7 379.047C365.033 375.15 371.852 375.637 377.698 370.279C383.057 364.92 389.389 361.51 396.209 358.1C413.746 349.332 427.873 334.717 442 320.59C453.692 308.899 464.896 296.721 472.69 282.594C480.484 268.467 479.023 251.417 484.868 236.803C489.253 226.086 492.663 216.343 499.483 207.087C502.893 202.703 506.79 198.806 510.2 194.422C514.097 190.038 516.045 185.166 518.968 179.808C521.891 173.962 526.275 169.091 528.711 162.758C531.147 156.912 530.659 152.041 530.659 145.708C530.659 139.375 530.659 132.555 530.659 125.735C540.889 139.862 549.171 152.528 555.991 165.681Z" fill="url(#paint4_linear_17416_3)" fill-opacity="0.5"/>
<path opacity="0.4" fill-rule="evenodd" clip-rule="evenodd" d="M519.453 113.558C517.017 111.122 514.582 108.199 512.146 105.763C494.609 88.2264 474.149 74.0994 451.741 62.8953C451.254 62.4081 450.766 62.4081 449.792 61.921C446.382 60.4596 442.972 58.9982 439.562 57.5367C434.691 55.5882 430.307 53.6396 425.435 52.1782C426.897 53.1525 428.845 54.1268 429.332 54.1268C432.255 55.5882 434.691 56.5625 436.64 58.9982C438.588 61.4338 439.562 63.3824 439.562 66.7924C439.562 69.7152 440.049 73.1252 440.537 76.048C441.024 78.9708 442.485 81.4065 442.972 84.3293C443.459 85.7907 443.459 87.2521 443.947 89.2007C444.921 93.0978 446.382 96.9949 447.356 100.892C448.818 108.199 444.921 114.045 442.485 120.378C438.588 130.607 436.152 140.837 432.742 151.554C430.307 159.836 425.922 168.117 419.59 174.45C413.257 180.295 404.001 181.757 398.643 188.09C393.771 193.935 387.926 199.294 381.106 202.217C373.311 206.114 364.543 209.037 356.262 211.472C350.416 213.421 344.083 213.421 337.75 214.882C329.956 216.831 323.136 220.728 316.316 223.651C308.522 227.061 301.702 230.958 293.908 234.368C286.114 237.778 279.294 242.162 271.5 245.085C267.603 246.546 263.706 247.52 260.296 248.495C252.501 251.418 245.194 256.289 236.913 257.263C233.99 257.75 231.067 258.237 228.144 258.237C225.709 258.237 223.76 258.725 221.812 259.212C214.505 262.135 210.12 269.929 201.839 270.416C194.045 270.416 186.738 269.929 179.431 270.903C175.534 271.39 172.124 270.903 168.714 271.39C167.739 271.39 166.278 271.877 165.304 271.39C164.329 270.903 162.868 269.929 161.407 268.955C158.484 267.493 156.048 265.545 153.612 263.596C148.741 259.699 142.408 262.135 137.05 260.673C135.588 260.186 133.153 260.673 131.691 259.699C128.281 257.75 123.897 253.366 120.974 250.93C120.487 257.263 120 263.596 120 269.929C120 281.133 120.974 291.85 122.436 302.567C122.923 307.438 123.897 312.31 124.871 317.668C126.333 324.488 128.281 331.795 130.23 338.128C133.153 347.384 136.563 356.639 140.46 365.408C146.792 366.382 153.125 367.356 159.458 366.382C168.714 364.921 177.482 363.459 186.738 363.946C195.506 364.434 203.3 367.356 211.582 368.818C220.837 370.279 230.58 371.741 240.323 372.228C249.091 372.715 257.86 373.689 266.141 374.663C272.474 375.638 279.294 376.612 285.627 377.099C302.677 378.073 319.239 373.689 335.802 372.228C344.083 371.253 352.365 369.305 360.646 367.356C365.517 366.382 370.389 364.921 374.773 361.998C380.619 358.101 384.516 352.742 389.387 348.358C395.233 343.487 401.078 338.615 406.924 334.231C411.795 330.334 416.667 325.95 422.025 322.54C425.922 320.104 430.307 317.181 434.204 314.258C441.511 308.413 447.844 301.593 454.176 294.286C462.945 284.056 466.355 269.929 469.765 257.263C473.175 245.572 475.123 234.368 481.456 223.651C484.379 218.779 486.815 212.934 488.276 207.088C489.25 203.678 489.737 199.294 491.199 195.884C493.635 190.525 498.993 186.141 501.916 181.27C504.352 177.373 507.274 173.476 508.736 168.604C512.146 159.836 514.581 151.067 516.043 141.324C517.017 134.504 519.453 127.685 521.401 120.865C521.889 119.89 521.888 118.429 522.376 117.455C522.376 116.968 520.914 115.019 519.453 113.558ZM218.889 271.39C219.376 270.416 228.145 267.006 229.119 266.519C229.119 266.519 229.119 266.519 228.632 266.519L222.786 268.955C229.119 267.006 240.323 273.339 234.964 280.159C233.503 282.107 229.119 283.082 226.683 283.569C224.247 284.056 222.786 283.082 221.325 281.133C219.863 279.184 218.889 276.262 218.889 273.826C218.889 273.339 218.889 271.877 218.889 271.39ZM150.202 333.257C143.382 331.308 138.998 328.872 135.101 323.027C132.178 319.13 130.23 315.72 129.256 311.335C128.768 307.438 127.307 304.516 128.281 300.618C128.768 297.696 130.23 294.286 131.691 291.85C133.153 288.927 135.588 285.517 135.588 284.543C142.408 284.056 148.741 283.569 155.074 283.569C162.381 283.569 170.175 284.543 177.482 284.543C180.892 284.543 184.302 284.543 187.712 284.056C191.122 283.569 194.045 282.594 197.455 282.107C203.3 281.133 208.659 280.646 214.018 283.081C217.915 285.03 219.863 289.901 221.812 293.799C222.786 296.234 223.76 297.696 223.76 300.618C223.76 304.028 223.76 306.951 223.273 309.874C223.273 310.848 222.786 312.31 222.786 313.284C217.915 323.514 205.249 326.924 195.506 330.821C180.892 336.667 164.817 337.154 150.202 333.257ZM253.963 355.665C251.04 363.459 238.374 365.895 231.067 366.382C227.657 366.382 223.273 365.895 219.863 363.946C217.915 362.972 216.453 361.024 214.992 359.075C214.018 357.614 212.556 355.178 208.659 356.152C209.633 351.768 210.608 347.871 212.556 343.974C214.018 342.025 215.966 340.564 217.915 338.615C221.325 335.692 225.222 332.77 229.119 330.821C235.452 327.411 242.271 329.847 248.117 332.77C252.501 334.718 255.424 337.641 256.399 342.025C257.86 347.384 255.911 350.794 253.963 355.665ZM339.699 354.204C337.263 359.562 333.853 361.024 328.982 363.946C323.136 366.869 315.342 369.305 309.009 369.305C305.599 369.305 302.189 367.843 299.267 366.382C297.318 365.408 294.882 364.921 293.421 363.459C289.037 359.075 288.062 353.229 290.985 354.204C289.037 350.307 288.062 346.409 287.575 342.512C288.55 342.025 289.037 341.051 289.037 340.077C291.472 335.692 295.857 331.795 300.728 329.36C308.522 324.975 318.752 324.001 327.521 327.898C331.418 329.36 333.853 331.308 336.289 334.231C337.751 335.692 339.212 336.667 340.673 338.615C342.135 342.512 341.16 349.819 339.699 354.204ZM365.517 353.229C364.056 354.204 361.62 356.152 360.159 356.152C358.697 355.665 356.262 353.229 356.262 351.281L355.287 350.306C357.236 346.897 359.185 343.974 361.133 340.564C364.056 342.025 366.979 341.538 368.927 344.948C371.363 348.358 367.953 351.281 365.517 353.229ZM431.281 199.781C428.845 203.191 425.435 206.601 421.538 208.062C416.667 210.011 409.847 211.959 409.36 204.165C409.36 199.781 409.847 196.371 411.795 192.474C414.718 186.628 417.154 185.167 423 182.244C424.948 182.244 427.384 183.218 428.845 183.705C431.768 184.68 434.691 187.603 435.178 191.012C435.665 194.422 433.23 197.345 431.281 199.781ZM492.173 167.143C489.737 174.937 486.328 182.244 482.918 189.064C479.02 197.832 478.533 207.088 476.098 216.344C475.123 221.702 472.201 227.548 467.329 229.496C464.893 230.471 462.945 229.984 460.509 229.984C458.074 229.984 454.176 230.958 454.176 232.906C452.715 229.009 450.766 224.138 449.792 220.241C448.818 215.857 448.331 210.985 447.844 206.114C446.869 201.242 446.869 196.371 446.382 191.5C445.895 187.115 444.921 182.244 444.921 177.86C444.921 162.758 453.689 143.76 467.816 136.94C472.201 134.992 476.585 134.017 481.456 134.504C486.815 135.479 490.225 136.94 492.66 142.299C495.583 149.606 494.122 159.349 492.173 167.143Z" fill="url(#paint5_linear_17416_3)" fill-opacity="0.5"/>
<path opacity="0.4" fill-rule="evenodd" clip-rule="evenodd" d="M424.948 181.27C424.461 181.757 423.487 181.757 423 182.244C421.538 182.244 420.564 181.757 419.59 182.244L424.948 181.27Z" fill="url(#paint6_linear_17416_3)" fill-opacity="0.5"/>
<path opacity="0.4" fill-rule="evenodd" clip-rule="evenodd" d="M135.103 284.543C134.616 284.543 134.129 284.543 134.129 284.543C135.103 284.055 135.103 284.055 135.103 284.543Z" fill="url(#paint7_linear_17416_3)" fill-opacity="0.5"/>
<path opacity="0.3" fill-rule="evenodd" clip-rule="evenodd" d="M218.891 460.887C218.891 460.887 239.837 468.681 254.939 464.297C254.939 464.297 260.784 415.096 242.273 383.432C223.762 351.768 192.098 399.508 192.098 399.508L184.791 429.71C184.791 429.71 202.328 450.657 218.891 460.887Z" fill="black" fill-opacity="0.5"/>
<path fill-rule="evenodd" clip-rule="evenodd" d="M167.74 471.605C168.227 472.092 168.715 472.579 168.715 473.553C167.74 473.553 167.74 473.066 167.74 472.092C167.74 471.118 168.227 471.605 168.715 470.63C168.715 470.63 168.714 470.63 169.202 470.63L167.74 471.605Z" fill="#0EDBFF"/>
</g>
<defs>
<filter id="filter0_b_17416_3" x="38.557" y="208.27" width="662.576" height="426.977" filterUnits="userSpaceOnUse" color-interpolation-filters="sRGB">
<feFlood flood-opacity="0" result="BackgroundImageFix"/>
<feGaussianBlur in="BackgroundImageFix" stdDeviation="24"/>
<feComposite in2="SourceAlpha" operator="in" result="effect1_backgroundBlur_17416_3"/>
<feBlend mode="normal" in="SourceGraphic" in2="effect1_backgroundBlur_17416_3" result="shape"/>
</filter>
<filter id="filter1_d_17416_3" x="-2.28882e-05" y="0" width="701.32" height="701.806" filterUnits="userSpaceOnUse" color-interpolation-filters="sRGB">
<feFlood flood-opacity="0" result="BackgroundImageFix"/>
<feColorMatrix in="SourceAlpha" type="matrix" values="0 0 0 0 0 0 0 0 0 0 0 0 0 0 0 0 0 0 127 0" result="hardAlpha"/>
<feOffset dy="80"/>
<feGaussianBlur stdDeviation="60"/>
<feComposite in2="hardAlpha" operator="out"/>
<feColorMatrix type="matrix" values="0 0 0 0 0 0 0 0 0 0 0 0 0 0 0 0 0 0 0.25 0"/>
<feBlend mode="normal" in2="BackgroundImageFix" result="effect1_dropShadow_17416_3"/>
<feBlend mode="normal" in="SourceGraphic" in2="effect1_dropShadow_17416_3" result="shape"/>
</filter>
<radialGradient id="paint0_radial_17416_3" cx="0" cy="0" r="1" gradientUnits="userSpaceOnUse" gradientTransform="translate(207.429 162.787) scale(370.719 370.719)">
<stop offset="0.00558659" stop-color="#60DBFF"/>
<stop offset="0.0937306" stop-color="#60D5FF"/>
<stop offset="0.211" stop-color="#5FC4FF"/>
<stop offset="0.3446" stop-color="#5DA9FF"/>
<stop offset="0.4903" stop-color="#5A82FF"/>
<stop offset="0.6442" stop-color="#5751FF"/>
<stop offset="0.6844" stop-color="#5643FF"/>
<stop offset="0.7432" stop-color="#563DF8"/>
<stop offset="0.8282" stop-color="#552EE5"/>
<stop offset="0.9287" stop-color="#5315C6"/>
<stop offset="1" stop-color="#5200AB"/>
</radialGradient>
<linearGradient id="paint1_linear_17416_3" x1="119.57" y1="207.418" x2="451.554" y2="207.418" gradientUnits="userSpaceOnUse">
<stop offset="0.0111732" stop-color="#81E0FF"/>
<stop offset="0.3224" stop-color="#82DDFF"/>
<stop offset="0.5506" stop-color="#86D4FF"/>
<stop offset="0.7523" stop-color="#8BC4FF"/>
<stop offset="0.9375" stop-color="#94ADFF"/>
<stop offset="1" stop-color="#97A4FF"/>
</linearGradient>
<linearGradient id="paint2_linear_17416_3" x1="121.677" y1="142.095" x2="411.917" y2="142.095" gradientUnits="userSpaceOnUse">
<stop stop-color="#B8C2FF"/>
<stop offset="1" stop-color="#7D72B3"/>
</linearGradient>
<linearGradient id="paint3_linear_17416_3" x1="168.783" y1="358.133" x2="581.145" y2="358.133" gradientUnits="userSpaceOnUse">
<stop stop-color="#B8C2FF"/>
<stop offset="1" stop-color="#7D72B3"/>
</linearGradient>
<linearGradient id="paint4_linear_17416_3" x1="144.427" y1="272.839" x2="555.961" y2="272.839" gradientUnits="userSpaceOnUse">
<stop stop-color="#B8C2FF"/>
<stop offset="1" stop-color="#7D72B3"/>
</linearGradient>
<linearGradient id="paint5_linear_17416_3" x1="119.581" y1="215.329" x2="524.1" y2="215.329" gradientUnits="userSpaceOnUse">
<stop stop-color="#B8C2FF"/>
<stop offset="1" stop-color="#7D72B3"/>
</linearGradient>
<linearGradient id="paint6_linear_17416_3" x1="419.268" y1="181.985" x2="424.821" y2="181.985" gradientUnits="userSpaceOnUse">
<stop stop-color="#E8DDFF"/>
<stop offset="1" stop-color="#AA8AD8"/>
</linearGradient>
<linearGradient id="paint7_linear_17416_3" x1="134.05" y1="284.594" x2="135.203" y2="284.594" gradientUnits="userSpaceOnUse">
<stop stop-color="#E8DDFF"/>
<stop offset="1" stop-color="#AA8AD8"/>
</linearGradient>
</defs>
</svg>
